<svg width="132" height="129" viewBox="0 0 132 129" fill="none" xmlns="http://www.w3.org/2000/svg">
<g id="books">
<path id="Path" d="M128.981 57.6857C128.981 66.1973 122.056 73.096 113.512 73.096H12.9805V42.2754H113.512C117.784 42.2754 121.651 43.9988 124.451 46.788C127.251 49.5773 128.981 53.4299 128.981 57.6857Z" fill="#FFF4F4"/>
<path id="Path_2" d="M128.981 57.6857C128.981 66.1973 122.056 73.096 113.512 73.096H66V42.2754H113.512C117.784 42.2754 121.651 43.9988 124.451 46.788C127.251 49.5773 128.981 53.4299 128.981 57.6857Z" fill="#EFE2DD"/>
<path id="Path_3" d="M119.019 3.85254V34.6731H18.4873C9.9434 34.6731 3.01855 27.7744 3.01855 19.2628C3.01855 15.007 4.74848 11.1544 7.54832 8.36775C10.3482 5.57849 14.2154 3.85254 18.4873 3.85254H119.019Z" fill="#FFF4F4"/>
<path id="Path_4" d="M66 3.85254H119.019V34.6731H66L66 3.85254Z" fill="#EFE2DD"/>
<path id="Path_5" d="M119.019 80.8013V111.622H18.4873C9.9434 111.622 3.01855 104.723 3.01855 96.2116C3.01855 91.9557 4.74848 88.1032 7.54832 85.3139C10.3482 82.5247 14.2154 80.8013 18.4873 80.8013H119.019Z" fill="#FFF4F4"/>
<path id="Path_6" d="M66 80.8013H119.019V111.622H66L66 80.8013Z" fill="#EFE2DD"/>
<path id="Path_7" d="M132 111.622C132 113.748 130.268 115.474 128.133 115.474H19.3359C14.172 115.474 9.31477 113.469 5.66156 109.829C2.01094 106.192 0 101.356 0 96.2116C0 85.5888 8.67281 76.9487 19.3359 76.9487H128.133C130.268 76.9487 132 78.6721 132 80.8013C132 82.9279 130.268 84.6539 128.133 84.6539H19.3359C12.9396 84.6539 7.73438 89.8394 7.73438 96.2116C7.73438 99.2988 8.94094 102.198 11.1323 104.382C13.3237 106.567 16.237 107.769 19.3359 107.769H128.133C130.268 107.769 132 109.493 132 111.622Z" fill="#00A88E"/>
<path id="Path_8" d="M23.4609 98.0982V125.143C23.4609 128.548 27.5777 130.257 30.012 127.917L36.5913 121.594L43.1681 127.917C45.613 130.268 49.7217 128.539 49.7217 125.143V98.0982C49.7217 95.969 47.9892 94.2456 45.8545 94.2456H27.3281C25.1934 94.2456 23.4609 95.969 23.4609 98.0982Z" fill="#00575E"/>
<path id="Path_9" d="M132 57.6857C132 62.8302 129.989 67.6664 126.338 71.3058C122.685 74.9427 117.828 76.9486 112.664 76.9486H3.86719C1.7325 76.9486 0 75.2226 0 73.096C0 70.9668 1.7325 69.2434 3.86719 69.2434H112.664C115.763 69.2434 118.676 68.0414 120.868 65.8557C123.059 63.6726 124.266 60.7729 124.266 57.6857C124.266 51.3136 119.06 46.128 112.664 46.128H3.86719C1.7325 46.128 0 44.402 0 42.2754C0 40.1462 1.7325 38.4229 3.86719 38.4229H112.664C123.327 38.4229 132 47.0629 132 57.6857Z" fill="#8F3A38"/>
<path id="Path_10" d="M132 34.6731C132 36.8023 130.268 38.5257 128.133 38.5257H19.3359C14.172 38.5257 9.31477 36.5224 5.66156 32.883C2.01094 29.2462 0 24.4099 0 19.2629C0 8.6426 8.67281 0 19.3359 0H128.133C130.268 0 132 1.72595 132 3.85257C132 5.98176 130.268 7.70514 128.133 7.70514H19.3359C12.9396 7.70514 7.73438 12.8907 7.73438 19.2629C7.73438 22.3501 8.94094 25.2523 11.1323 27.4354C13.3237 29.6186 16.237 30.8206 19.3359 30.8206H128.133C130.268 30.8206 132 32.5465 132 34.6731Z" fill="#00A88E"/>
<path id="Path_11" d="M23.4609 21.1509V48.196C23.4609 51.6063 27.5787 53.3088 30.012 50.9698L36.5913 44.6465L43.1681 50.9698C45.613 53.3209 49.7217 51.5921 49.7217 48.196V21.1509C49.7217 19.0217 47.9892 17.2983 45.8545 17.2983H27.3281C25.1934 17.2983 23.4609 19.0217 23.4609 21.1509Z" fill="#00575E"/>
<path id="Path_12" d="M132 111.622C132 113.748 130.268 115.474 128.133 115.474H66V107.769H128.133C130.268 107.769 132 109.492 132 111.622Z" fill="#00A88E"/>
<path id="Path_13" d="M132 80.8013C132 82.9279 130.268 84.6539 128.133 84.6539H66V76.9487H128.133C130.268 76.9487 132 78.6721 132 80.8013Z" fill="#00A88E"/>
<path id="Path_14" d="M132 34.6734C132 36.8026 130.268 38.5259 128.133 38.5259H66V30.8208H128.133C130.268 30.8208 132 32.5468 132 34.6734Z" fill="#00A88E"/>
<path id="Path_15" d="M128.133 7.70514H66V0H128.133C130.268 0 132 1.72595 132 3.85257C132 5.98176 130.268 7.70514 128.133 7.70514Z" fill="#00A88E"/>
<path id="Path_16" d="M132 57.6857C132 62.8302 129.989 67.6664 126.338 71.3058C122.685 74.9427 117.828 76.9486 112.664 76.9486H66V69.2434H112.664C115.763 69.2434 118.676 68.0414 120.868 65.8557C123.059 63.6726 124.266 60.7729 124.266 57.6857C124.266 51.3136 119.06 46.128 112.664 46.128H66V38.4229H112.664C123.327 38.4229 132 47.0629 132 57.6857Z" fill="#8F3A38"/>
<path id="Path_17" d="M108.539 59.5728V86.6178C108.539 90.0281 104.421 91.731 101.988 89.3917L95.4087 83.0683L88.8319 89.3917C86.3871 91.7428 82.2783 90.014 82.2783 86.6178V59.5728C82.2783 57.4436 84.0108 55.7202 86.1455 55.7202H104.672C106.807 55.7202 108.539 57.4436 108.539 59.5728Z" fill="#00575E"/>
</g>
</svg>
