<svg width="20" height="20" viewBox="0 0 20 20" fill="none" xmlns="http://www.w3.org/2000/svg">
<g id="calendar">
<rect id="Rectangle" x="9.21875" y="8.98438" width="1.5625" height="1.5625" fill="#CDCDCD"/>
<path id="Shape" fill-rule="evenodd" clip-rule="evenodd" d="M16.7188 1.5625H17.6562C18.9486 1.5625 20 2.61391 20 3.90625V8.90625V8.98438V10.3813C19.5541 9.84121 19.0269 9.3707 18.4375 8.98824V8.98438V8.90625V7.34375H1.5625V17.6562C1.5625 18.087 1.91297 18.4375 2.34375 18.4375H7.53906H7.65625H8.98824C9.3707 19.0269 9.84117 19.5541 10.3813 20H7.65625H7.53906H2.34375C1.05141 20 0 18.9486 0 17.6562V3.90625C0 2.61391 1.05141 1.5625 2.34375 1.5625H3.28125V0H4.84375V1.5625H15.1562V0H16.7188V1.5625ZM1.5625 5.78125H18.4375V3.90625C18.4375 3.47547 18.087 3.125 17.6562 3.125H16.7188V4.6875H15.1562V3.125H4.84375V4.6875H3.28125V3.125H2.34375C1.91297 3.125 1.5625 3.47547 1.5625 3.90625V5.78125Z" fill="#CDCDCD"/>
<path id="Shape_2" fill-rule="evenodd" clip-rule="evenodd" d="M9.45312 14.7266C9.45312 11.8188 11.8188 9.45312 14.7266 9.45312C17.6343 9.45312 20 11.8188 20 14.7266C20 17.6343 17.6343 20 14.7266 20C11.8188 20 9.45312 17.6343 9.45312 14.7266ZM11.0156 14.7266C11.0156 16.7728 12.6804 18.4375 14.7266 18.4375C16.7728 18.4375 18.4375 16.7728 18.4375 14.7266C18.4375 12.6804 16.7728 11.0156 14.7266 11.0156C12.6804 11.0156 11.0156 12.6804 11.0156 14.7266Z" fill="#CDCDCD"/>
<path id="Path" d="M15.4688 12.1094H13.9062V15.5078H16.7969V13.9453H15.4688V12.1094Z" fill="#CDCDCD"/>
<rect id="Rectangle_2" x="6.09375" y="12.1094" width="1.5625" height="1.5625" fill="#CDCDCD"/>
<rect id="Rectangle_3" x="2.96875" y="12.1094" width="1.5625" height="1.5625" fill="#CDCDCD"/>
<rect id="Rectangle_4" x="2.96875" y="8.98438" width="1.5625" height="1.5625" fill="#CDCDCD"/>
<rect id="Rectangle_5" x="2.96875" y="15.2344" width="1.5625" height="1.5625" fill="#CDCDCD"/>
<rect id="Rectangle_6" x="6.09375" y="8.98438" width="1.5625" height="1.5625" fill="#CDCDCD"/>
<rect id="Rectangle_7" x="6.09375" y="15.2344" width="1.5625" height="1.5625" fill="#CDCDCD"/>
</g>
</svg>
