<svg width="24" height="26" viewBox="0 0 24 26" fill="none" xmlns="http://www.w3.org/2000/svg">
<path d="M21.2074 17.8351C19.6594 16.5111 18.0884 15.7091 16.5594 17.0311L15.6464 17.8301C14.9784 18.4101 13.7364 21.1201 8.93437 15.5961C4.13337 10.0791 6.99037 9.22015 7.65937 8.64515L8.57737 7.84515C10.0984 6.52015 9.52437 4.85215 8.42737 3.13515L7.76537 2.09515C6.66337 0.382145 5.46337 -0.742854 3.93837 0.580145L3.11437 1.30015C2.44037 1.79115 0.556367 3.38715 0.0993674 6.41915C-0.450633 10.0571 1.28437 14.2231 5.25937 18.7941C9.22937 23.3671 13.1164 25.6641 16.7984 25.6241C19.8584 25.5911 21.7064 23.9491 22.2844 23.3521L23.1114 22.6311C24.6324 21.3091 23.6874 19.9631 22.1384 18.6361L21.2074 17.8351Z" fill="white"/>
</svg>
