<svg width="20" height="20" viewBox="0 0 20 20" fill="none" xmlns="http://www.w3.org/2000/svg">
<g id="clock-2">
<path id="Shape" fill-rule="evenodd" clip-rule="evenodd" d="M0 10C0 4.47715 4.47715 0 10 0C15.5201 0.00651227 19.9935 4.47985 20 10C20 15.5228 15.5228 20 10 20C4.47715 20 0 15.5228 0 10ZM12.0845 13.37C12.4395 13.7249 13.015 13.7249 13.37 13.37C13.7249 13.015 13.7249 12.4395 13.37 12.0845L10.9091 9.62364V4.54545C10.9091 4.04338 10.5021 3.63636 10 3.63636C9.49792 3.63636 9.09091 4.04338 9.09091 4.54545V10C9.09096 10.2411 9.18677 10.4723 9.35727 10.6427L12.0845 13.37Z" fill="#CDCDCD"/>
</g>
</svg>
