<svg width="32" height="32" viewBox="0 0 32 32" fill="none" xmlns="http://www.w3.org/2000/svg">
<path d="M25.076 23.1926C25.5967 23.7133 25.5967 24.5575 25.076 25.0782C24.5553 25.5989 23.7111 25.5989 23.1904 25.0782L15.9999 17.8877L8.80935 25.0782C8.28865 25.5989 7.44443 25.5989 6.92373 25.0782C6.40303 24.5575 6.40303 23.7133 6.92373 23.1926L14.1143 16.0021L6.92373 8.81154C6.40303 8.29087 6.40303 7.44661 6.92373 6.92594C7.44443 6.40527 8.28865 6.40527 8.80935 6.92594L15.9999 14.1165L23.1904 6.92594C23.7111 6.40527 24.5553 6.40527 25.076 6.92594C25.5967 7.44661 25.5967 8.29087 25.076 8.81154L17.8855 16.0021L25.076 23.1926Z" fill="#C0C0C0"/>
</svg>
