<svg width="132" height="132" viewBox="0 0 132 132" fill="none" xmlns="http://www.w3.org/2000/svg">
<g id="computer">
<path id="Shape" fill-rule="evenodd" clip-rule="evenodd" d="M132 30V78C132 85.9565 128.839 93.5871 123.213 99.2132C117.587 104.839 109.956 108 102 108H30C22.0435 108 14.4129 104.839 8.7868 99.2132C3.16071 93.5871 0 85.9565 0 78V30C0 13.4315 13.4315 0 30 0H102C109.956 0 117.587 3.16071 123.213 8.7868C128.839 14.4129 132 22.0435 132 30ZM24 42C24 45.3137 26.6863 48 30 48H66C69.3137 48 72 45.3137 72 42C72 38.6863 69.3137 36 66 36H30C26.6863 36 24 38.6863 24 42ZM102 60C105.314 60 108 62.6863 108 66C108 69.3137 105.314 72 102 72H30C26.6863 72 24 69.3137 24 66C24 62.6863 26.6863 60 30 60H102Z" fill="#00A88E"/>
<path id="Path" d="M102 132H30C26.6863 132 24 129.314 24 126C24 122.686 26.6863 120 30 120H102C105.314 120 108 122.686 108 126C108 129.314 105.314 132 102 132Z" fill="#8F3A38"/>
</g>
</svg>
