<svg width="60" height="60" viewBox="0 0 60 60" fill="none" xmlns="http://www.w3.org/2000/svg">
<path d="M57.5 21.2489C57.9242 21.2576 58.3438 21.3387 58.7407 21.4885C58.7188 20.79 58.5022 20.1115 58.1153 19.5296C57.7284 18.9476 57.1866 18.4853 56.551 18.1948L53.75 16.9219V22.8594L55.592 21.771C56.1698 21.4294 56.8287 21.2491 57.5 21.2489Z" fill="#00A58C"/>
<path d="M4.40929 21.7717L6.25016 22.8594V16.9219L3.44866 18.195C2.81297 18.4858 2.27113 18.9483 1.88421 19.5305C1.4973 20.1127 1.28068 20.7914 1.25879 21.4901C1.6559 21.3399 2.0757 21.2585 2.50016 21.2492C3.17186 21.2492 3.83123 21.4297 4.40929 21.7717Z" fill="#00A58C"/>
<path d="M58.1195 23.914C57.9279 23.805 57.7109 23.7485 57.4904 23.7502C57.27 23.7519 57.0539 23.8118 56.864 23.9238L30 39.7979L3.136 23.9239C2.94618 23.8117 2.73007 23.7517 2.50958 23.75C2.2891 23.7483 2.07209 23.805 1.88057 23.9143C1.68905 24.0235 1.52985 24.1815 1.4191 24.3722C1.30836 24.5628 1.25002 24.7794 1.25 24.9999V54.9999C1.25109 55.9941 1.64653 56.9473 2.34956 57.6503C3.05258 58.3534 4.00577 58.7488 5 58.7499H55C55.9942 58.7488 56.9474 58.3534 57.6504 57.6503C58.3535 56.9473 58.7489 55.9941 58.75 54.9999V24.9999C58.75 24.7794 58.6917 24.5628 58.581 24.372C58.4703 24.1813 58.311 24.0233 58.1195 23.914Z" fill="#00A58C"/>
<path d="M51.25 24.3375V3.75C51.25 3.08696 50.9866 2.45107 50.5178 1.98223C50.0489 1.51339 49.413 1.25 48.75 1.25H11.25C10.587 1.25 9.95107 1.51339 9.48223 1.98223C9.01339 2.45107 8.75 3.08696 8.75 3.75V24.3375L30 36.8939L51.25 24.3375ZM20 11.25H30C30.3315 11.25 30.6495 11.3817 30.8839 11.6161C31.1183 11.8505 31.25 12.1685 31.25 12.5C31.25 12.8315 31.1183 13.1495 30.8839 13.3839C30.6495 13.6183 30.3315 13.75 30 13.75H20C19.6685 13.75 19.3505 13.6183 19.1161 13.3839C18.8817 13.1495 18.75 12.8315 18.75 12.5C18.75 12.1685 18.8817 11.8505 19.1161 11.6161C19.3505 11.3817 19.6685 11.25 20 11.25ZM18.75 18.75C18.7499 18.5858 18.7822 18.4232 18.8449 18.2715C18.9077 18.1198 18.9998 17.982 19.1159 17.8659C19.232 17.7498 19.3698 17.6577 19.5215 17.5949C19.6732 17.5322 19.8358 17.4999 20 17.5H40C40.3315 17.5 40.6495 17.6317 40.8839 17.8661C41.1183 18.1005 41.25 18.4185 41.25 18.75C41.25 19.0815 41.1183 19.3995 40.8839 19.6339C40.6495 19.8683 40.3315 20 40 20H20C19.8358 20.0001 19.6732 19.9678 19.5215 19.9051C19.3698 19.8423 19.232 19.7502 19.1159 19.6341C18.9998 19.518 18.9077 19.3802 18.8449 19.2285C18.7822 19.0768 18.7499 18.9142 18.75 18.75Z" fill="#00A58C"/>
</svg>
