<svg width="40" height="40" viewBox="0 0 40 40" fill="none" xmlns="http://www.w3.org/2000/svg">
<g id="facebook-5">
<path id="Shape" fill-rule="evenodd" clip-rule="evenodd" d="M0 0H32.8318C36.7907 0 40 3.2093 40 7.16818V40H7.16818C3.2093 40 0 36.7907 0 32.8318V0ZM25.3932 21.0136L25.7614 17.8477C25.7828 17.6792 25.7312 17.5096 25.6196 17.3816C25.5081 17.2535 25.3471 17.1792 25.1773 17.1773H21.4841V14.5205C21.4841 13.3182 21.8114 12.5 23.4909 12.5H25.0455C25.3708 12.4963 25.6329 12.2321 25.6341 11.9068V9.24091C25.6379 8.91166 25.3747 8.64135 25.0455 8.63636H22.5114C19.4227 8.63636 17.3068 10.5682 17.3068 14.1182V17.1773H14.8136C14.6557 17.1791 14.505 17.2435 14.3946 17.3565C14.2842 17.4694 14.2232 17.6216 14.225 17.7795L14.2386 20.9455C14.2368 21.1028 14.2976 21.2544 14.4075 21.3669C14.5175 21.4794 14.6677 21.5437 14.825 21.5455H17.325L17.3091 30.9341C17.3066 31.1679 17.4934 31.3599 17.7273 31.3636H21.0659C21.2997 31.3611 21.4876 31.1702 21.4864 30.9364L21.5023 21.5455H24.8114C25.1129 21.5434 25.3641 21.3138 25.3932 21.0136Z" fill="white"/>
</g>
</svg>
