<svg width="20" height="22" viewBox="0 0 20 22" fill="none" xmlns="http://www.w3.org/2000/svg">
<path d="M16.2759 5.7168C14.3568 5.7168 12.7723 7.17605 12.5732 9.0432C13.9661 9.9073 14.8957 11.4502 14.8957 13.2064V15.7168C14.8957 16.6326 14.483 17.4745 13.8072 18.0353V21.4069C13.8072 21.7305 14.0695 21.9929 14.3931 21.9929H18.1588C18.4823 21.9929 18.7447 21.7305 18.7447 21.4069V15.5796C19.4736 15.3343 19.9999 14.6445 19.9999 13.834V9.44074C19.9999 7.38738 18.3293 5.7168 16.2759 5.7168Z" fill="#00A58C"/>
<path d="M16.2761 4.46768C17.3027 4.46768 18.138 3.63241 18.138 2.60569C18.0445 0.138892 14.5073 0.139595 14.4141 2.60573C14.4141 3.63241 15.2493 4.46768 16.2761 4.46768Z" fill="#00A58C"/>
<path d="M11.8622 6.3698C11.8622 5.34309 11.027 4.50781 10.0002 4.50781C7.53344 4.60141 7.5341 8.13855 10.0003 8.2318C11.0269 8.2318 11.8622 7.39652 11.8622 6.3698Z" fill="#00A58C"/>
<path d="M9.99957 9.48242C8.08047 9.48242 6.49594 10.9417 6.29688 12.8088C7.68973 13.6729 8.61938 15.2158 8.61938 16.972V17.5996C8.61938 18.5154 8.20668 19.3572 7.53082 19.9181V21.4069C7.53082 21.7305 7.79316 21.9929 8.11676 21.9929H11.8824C12.206 21.9929 12.4683 21.7305 12.4683 21.4069V17.4624C13.1972 17.2171 13.7235 16.5273 13.7235 15.7168V13.2064C13.7235 11.153 12.053 9.48242 9.99957 9.48242Z" fill="#00A58C"/>
<path d="M3.72394 13.248C1.66355 13.248 0 14.9157 0 16.972V17.5996C0 18.4101 0.526328 19.0999 1.2552 19.3452V21.4069C1.2552 21.7305 1.51754 21.9928 1.84113 21.9928H5.60676C5.93035 21.9928 6.1927 21.7305 6.1927 21.4069V19.3452C6.92156 19.0999 7.44789 18.4101 7.44789 17.5996V16.972C7.44793 14.9119 5.78066 13.248 3.72394 13.248Z" fill="#00A58C"/>
<path d="M3.72332 11.9989C4.75 11.9989 5.58531 11.1637 5.58531 10.1369C5.49172 7.67014 1.95457 7.67084 1.86133 10.137C1.86137 11.1637 2.69664 11.9989 3.72332 11.9989Z" fill="#00A58C"/>
</svg>
