<svg width="52" height="52" viewBox="0 0 52 52" fill="none" xmlns="http://www.w3.org/2000/svg">
<g clip-path="url(#clip0_139_5491)">
<path d="M25.9888 12.2711C34.6518 12.3561 40.0788 11.8171 40.8118 21.4191H51.3758C51.3758 6.54406 38.4028 4.53906 25.7138 4.53906C13.0238 4.53906 0.0517578 6.54406 0.0517578 21.4191H10.5338C11.3448 11.6341 17.3978 12.1871 25.9888 12.2711Z" fill="#00A58C"/>
<path d="M5.291 26.2026C7.864 26.2026 10.005 26.3566 10.481 23.8256C10.545 23.4816 10.582 23.0916 10.582 22.6406H10.46H0C0 26.4056 2.369 26.2026 5.291 26.2026Z" fill="#00A58C"/>
<path d="M40.8798 22.6406H40.7808C40.7808 23.0946 40.8198 23.4856 40.8928 23.8256C41.3948 26.1596 43.5328 26.0146 46.0968 26.0146C49.0328 26.0146 51.4128 26.2076 51.4128 22.6406H40.8798Z" fill="#00A58C"/>
<path d="M35.7188 20.0742V18.5782C35.7188 17.9092 34.9478 17.8672 33.9958 17.8672H32.4408C31.4898 17.8672 30.7188 17.9092 30.7188 18.5782V19.8672V20.8672H19.7188V19.8672V18.5782C19.7188 17.9092 18.9478 17.8672 17.9968 17.8672H16.4408C15.4898 17.8672 14.7188 17.9092 14.7188 18.5782V20.0742V21.3802C12.2128 23.9842 4.01284 35.0692 3.71484 36.4112L3.71884 45.3662C3.71884 46.1932 4.39184 46.8662 5.21884 46.8662H45.2188C46.0458 46.8662 46.7188 46.1932 46.7188 45.3662V36.3662C46.4238 35.0632 38.2258 23.9832 35.7188 21.3792V20.0742ZM19.1768 37.6162C18.3718 37.6162 17.7188 36.9642 17.7188 36.1582C17.7188 35.3522 18.3718 34.7002 19.1768 34.7002C19.9818 34.7002 20.6348 35.3522 20.6348 36.1582C20.6348 36.9642 19.9818 37.6162 19.1768 37.6162ZM19.1768 32.6162C18.3718 32.6162 17.7188 31.9642 17.7188 31.1582C17.7188 30.3522 18.3718 29.7002 19.1768 29.7002C19.9818 29.7002 20.6348 30.3522 20.6348 31.1582C20.6348 31.9642 19.9818 32.6162 19.1768 32.6162ZM19.1768 27.6172C18.3718 27.6172 17.7188 26.9652 17.7188 26.1592C17.7188 25.3542 18.3718 24.7012 19.1768 24.7012C19.9818 24.7012 20.6348 25.3542 20.6348 26.1592C20.6348 26.9652 19.9818 27.6172 19.1768 27.6172ZM25.1768 37.6162C24.3718 37.6162 23.7188 36.9642 23.7188 36.1582C23.7188 35.3522 24.3718 34.7002 25.1768 34.7002C25.9828 34.7002 26.6348 35.3522 26.6348 36.1582C26.6348 36.9642 25.9828 37.6162 25.1768 37.6162ZM25.1768 32.6162C24.3718 32.6162 23.7188 31.9642 23.7188 31.1582C23.7188 30.3522 24.3718 29.7002 25.1768 29.7002C25.9828 29.7002 26.6348 30.3522 26.6348 31.1582C26.6348 31.9642 25.9828 32.6162 25.1768 32.6162ZM25.1768 27.6172C24.3718 27.6172 23.7188 26.9652 23.7188 26.1592C23.7188 25.3542 24.3718 24.7012 25.1768 24.7012C25.9828 24.7012 26.6348 25.3542 26.6348 26.1592C26.6348 26.9652 25.9828 27.6172 25.1768 27.6172ZM31.1768 37.6162C30.3708 37.6162 29.7188 36.9642 29.7188 36.1582C29.7188 35.3522 30.3708 34.7002 31.1768 34.7002C31.9828 34.7002 32.6348 35.3522 32.6348 36.1582C32.6348 36.9642 31.9828 37.6162 31.1768 37.6162ZM31.1768 32.6162C30.3708 32.6162 29.7188 31.9642 29.7188 31.1582C29.7188 30.3522 30.3708 29.7002 31.1768 29.7002C31.9828 29.7002 32.6348 30.3522 32.6348 31.1582C32.6348 31.9642 31.9828 32.6162 31.1768 32.6162ZM31.1768 27.6172C30.3708 27.6172 29.7188 26.9652 29.7188 26.1592C29.7188 25.3542 30.3708 24.7012 31.1768 24.7012C31.9828 24.7012 32.6348 25.3542 32.6348 26.1592C32.6348 26.9652 31.9828 27.6172 31.1768 27.6172Z" fill="#00A58C"/>
</g>
<defs>
<clipPath id="clip0_139_5491">
<rect width="51.413" height="51.413" fill="white"/>
</clipPath>
</defs>
</svg>
