<svg width="40" height="40" viewBox="0 0 40 40" fill="none" xmlns="http://www.w3.org/2000/svg">
<g id="instagram-logo">
<path id="Path" d="M23.591 20.0001C23.591 21.9833 21.9833 23.591 20.0001 23.591C18.0169 23.591 16.4092 21.9833 16.4092 20.0001C16.4092 18.0169 18.0169 16.4092 20.0001 16.4092C21.9833 16.4092 23.591 18.0169 23.591 20.0001Z" fill="white"/>
<path id="Shape" fill-rule="evenodd" clip-rule="evenodd" d="M24.5933 10.9229H15.4069C14.2177 10.9229 13.0771 11.3953 12.2362 12.2362C11.3953 13.0771 10.9229 14.2177 10.9229 15.4069V24.5933C10.9229 25.7826 11.3953 26.9231 12.2362 27.764C13.0771 28.605 14.2177 29.0774 15.4069 29.0774H24.5933C25.7826 29.0774 26.9231 28.605 27.764 27.764C28.605 26.9231 29.0774 25.7826 29.0774 24.5933V15.4069C29.0774 14.2177 28.605 13.0771 27.764 12.2362C26.9231 11.3953 25.7826 10.9229 24.5933 10.9229ZM20.0001 25.8797C17.6219 25.8806 15.4773 24.4487 14.5665 22.2517C13.6558 20.0547 14.1582 17.5255 15.8396 15.8435C17.5209 14.1615 20.05 13.658 22.2473 14.5679C24.4446 15.4778 25.8774 17.6219 25.8774 20.0001C25.8724 23.2443 23.2443 25.8734 20.0001 25.8797ZM24.4569 14.1229C24.4569 14.9249 25.1071 15.5751 25.9092 15.5751C26.7113 15.5751 27.3615 14.9249 27.3615 14.1229C27.3615 13.3208 26.7113 12.6706 25.9092 12.6706C25.1071 12.6706 24.4569 13.3208 24.4569 14.1229Z" fill="white"/>
<path id="Shape_2" fill-rule="evenodd" clip-rule="evenodd" d="M0 0H32.8318C34.7333 0 36.5569 0.755529 37.9013 2.10032C39.2457 3.4451 40.0006 5.26894 40 7.17045V40H7.16818C3.2093 40 0 36.7907 0 32.8318V0ZM24.5932 31.3636C28.3303 31.3586 31.3586 28.3303 31.3636 24.5932V15.4068C31.3586 11.6697 28.3303 8.64137 24.5932 8.63636H15.4068C11.6697 8.64137 8.64137 11.6697 8.63636 15.4068V24.5932C8.64137 28.3303 11.6697 31.3586 15.4068 31.3636H24.5932Z" fill="white"/>
</g>
</svg>
