<svg width="20" height="20" viewBox="0 0 20 20" fill="none" xmlns="http://www.w3.org/2000/svg">
<g clip-path="url(#clip0_139_5530)">
<path d="M10 0C8.01169 0.0024727 6.10556 0.744057 4.69961 2.06214C3.29366 3.38022 2.50264 5.16721 2.5 7.03125C2.5 12.0791 9.4875 18.4014 9.78437 18.668C9.84212 18.7206 9.91947 18.75 10 18.75C10.0805 18.75 10.1579 18.7206 10.2156 18.668C10.5125 18.4014 17.5 12.0791 17.5 7.03125C17.4974 5.16721 16.7063 3.38022 15.3004 2.06214C13.8944 0.744057 11.9883 0.0024727 10 0ZM10 10.2539C9.32013 10.2539 8.65552 10.0649 8.09023 9.71079C7.52493 9.35668 7.08434 8.85337 6.82416 8.26451C6.56399 7.67564 6.49591 7.02767 6.62855 6.40254C6.76119 5.77741 7.08858 5.20318 7.56932 4.75249C8.05006 4.30179 8.66257 3.99486 9.32938 3.87052C9.99619 3.74617 10.6874 3.80999 11.3155 4.0539C11.9436 4.29782 12.4805 4.71088 12.8582 5.24084C13.2359 5.7708 13.4375 6.39387 13.4375 7.03125C13.437 7.88579 13.0746 8.70519 12.4301 9.30945C11.7855 9.9137 10.9115 10.2534 10 10.2539Z" fill="#00A58C"/>
</g>
<defs>
<clipPath id="clip0_139_5530">
<rect width="20" height="18.75" fill="white"/>
</clipPath>
</defs>
</svg>
