<svg width="154" height="119" viewBox="0 0 154 119" fill="none" xmlns="http://www.w3.org/2000/svg">
<mask id="mask0_498_815" style="mask-type:luminance" maskUnits="userSpaceOnUse" x="0" y="107" width="19" height="10">
<path fill-rule="evenodd" clip-rule="evenodd" d="M16.5865 107.312C16.543 107.296 16.4956 107.296 16.4522 107.312C16.4014 107.338 16.3676 107.389 16.3626 107.446L14.1242 114.755C14.1134 114.808 14.0663 114.845 14.0123 114.844H13.9339C13.8771 114.846 13.8263 114.809 13.8108 114.755L11.4492 108.039C11.3728 107.799 11.2291 107.585 11.0351 107.424C10.818 107.299 10.5689 107.24 10.3188 107.256H8.89738C8.67384 107.243 8.45162 107.298 8.25942 107.413C8.0533 107.568 7.90702 107.789 7.84531 108.039L5.52851 114.755C5.51771 114.808 5.47061 114.845 5.41658 114.844H5.34943C5.28228 114.844 5.23751 114.844 5.23751 114.755L2.9207 107.446C2.87593 107.334 2.80878 107.278 2.71924 107.278H0.782977C0.704631 107.278 0.659862 107.278 0.648669 107.357C0.627527 107.43 0.627527 107.507 0.648669 107.58L3.27886 115.74C3.3275 115.918 3.39503 116.09 3.48032 116.254C3.54185 116.377 3.62531 116.487 3.72655 116.579C3.82266 116.653 3.93321 116.707 4.05112 116.736C4.1926 116.749 4.33496 116.749 4.47643 116.736H6.09931C6.33515 116.752 6.56808 116.676 6.74846 116.523C6.96052 116.29 7.114 116.01 7.19616 115.706L9.43461 109.259C9.44591 109.202 9.49959 109.163 9.55773 109.17C9.61587 109.163 9.66955 109.202 9.68084 109.259L11.9193 115.706C12.0063 116.008 12.1592 116.287 12.367 116.523C12.5485 116.674 12.7806 116.75 13.0161 116.736H14.695C14.9285 116.749 15.159 116.677 15.3441 116.534C15.5624 116.301 15.7167 116.016 15.7918 115.706L18.5339 107.547C18.5498 107.477 18.5498 107.404 18.5339 107.334C18.5177 107.275 18.4605 107.237 18.3996 107.245L16.5865 107.312Z" fill="white"/>
</mask>
<g mask="url(#mask0_498_815)">
<rect x="0.625977" y="107.301" width="18.0308" height="9.50225" fill="url(#paint0_linear_498_815)"/>
</g>
<mask id="mask1_498_815" style="mask-type:luminance" maskUnits="userSpaceOnUse" x="17" y="107" width="15" height="10">
<path fill-rule="evenodd" clip-rule="evenodd" d="M24.1415 109.326C24.1753 109.272 24.2342 109.238 24.2982 109.237H24.3877C24.4523 109.236 24.5121 109.27 24.5444 109.326L26.7829 113.311H21.8694L24.1415 109.326ZM23.8281 107.312C23.5498 107.305 23.2749 107.374 23.0334 107.513C22.7339 107.727 22.4917 108.011 22.3283 108.341L17.65 116.489C17.6141 116.56 17.6141 116.643 17.65 116.713C17.65 116.78 17.7395 116.803 17.8626 116.803H19.7205C19.8552 116.814 19.985 116.75 20.0563 116.635L21.0412 114.878H27.7566L28.7751 116.635C28.8407 116.75 28.9678 116.816 29.0997 116.803H30.9128C31.0247 116.803 31.1031 116.803 31.1255 116.713C31.1553 116.641 31.1553 116.561 31.1255 116.489L26.3911 108.341C26.2215 108.009 25.9714 107.724 25.6636 107.513C25.3832 107.371 25.0714 107.301 24.7571 107.312H23.8281Z" fill="white"/>
</mask>
<g mask="url(#mask1_498_815)">
<rect x="17.583" y="107.3" width="13.5091" height="9.50225" fill="url(#paint1_linear_498_815)"/>
</g>
<mask id="mask2_498_815" style="mask-type:luminance" maskUnits="userSpaceOnUse" x="31" y="107" width="14" height="12">
<path fill-rule="evenodd" clip-rule="evenodd" d="M34.73 114.598C34.5168 114.554 34.3195 114.454 34.1592 114.307C34.0075 114.146 33.8996 113.95 33.8458 113.736C33.7825 113.442 33.7525 113.141 33.7563 112.84V111.039C33.7525 110.741 33.7825 110.445 33.8458 110.154C33.8914 109.937 34.0005 109.739 34.1592 109.584C34.3156 109.429 34.5142 109.324 34.73 109.281C35.0354 109.217 35.3469 109.187 35.659 109.192H39.9008C40.2091 109.188 40.5169 109.218 40.8186 109.281C41.0384 109.322 41.2411 109.427 41.4006 109.584C41.5495 109.744 41.6536 109.941 41.7028 110.154C41.7717 110.444 41.8018 110.741 41.7923 111.039V112.84C41.8017 113.142 41.7716 113.443 41.7028 113.736C41.6483 113.947 41.5448 114.143 41.4006 114.307C41.2359 114.454 41.035 114.554 40.8186 114.598C40.5178 114.667 40.2093 114.697 39.9008 114.687H35.659C35.3467 114.698 35.0345 114.668 34.73 114.598ZM35.5694 107.311C34.9485 107.301 34.3285 107.365 33.7227 107.502C33.2697 107.614 32.8485 107.828 32.4915 108.129C32.1583 108.428 31.9175 108.816 31.7976 109.248C31.6319 109.784 31.5562 110.343 31.5738 110.904V113.008C31.5579 113.569 31.6335 114.129 31.7976 114.665C31.922 115.094 32.162 115.482 32.4915 115.784C32.8465 116.085 33.2688 116.296 33.7227 116.4C34.3285 116.536 34.9485 116.6 35.5694 116.59H38.748L40.3933 118.828C40.488 118.952 40.6416 119.016 40.7962 118.996H42.6206C42.7549 118.996 42.8332 118.996 42.8444 118.862C42.8683 118.793 42.8683 118.718 42.8444 118.649L41.1991 116.5C42.028 116.46 42.806 116.089 43.3592 115.471C43.8479 114.738 44.0801 113.864 44.0196 112.986V110.882C44.0317 110.321 43.9561 109.762 43.7957 109.225C43.6819 108.791 43.4401 108.401 43.1018 108.106C42.7435 107.801 42.3176 107.586 41.8595 107.479C41.2536 107.343 40.6337 107.279 40.0128 107.289L35.5694 107.311Z" fill="white"/>
</mask>
<g mask="url(#mask2_498_815)">
<rect x="31.5625" y="107.3" width="12.4122" height="11.6959" fill="url(#paint2_linear_498_815)"/>
</g>
<mask id="mask3_498_815" style="mask-type:luminance" maskUnits="userSpaceOnUse" x="45" y="107" width="12" height="10">
<path fill-rule="evenodd" clip-rule="evenodd" d="M49.6383 107.312C49.0173 107.302 48.3974 107.366 47.7915 107.502C47.3377 107.612 46.9159 107.826 46.5604 108.129C46.224 108.428 45.9795 108.816 45.8553 109.248C45.6992 109.786 45.6274 110.345 45.6426 110.905V116.501C45.6426 116.702 45.7433 116.792 45.9672 116.792H47.5117C47.7132 116.792 47.8251 116.702 47.8251 116.501V112.986H55.85C55.9339 112.997 56.018 112.969 56.0789 112.91C56.1397 112.851 56.1708 112.768 56.1634 112.684V111.565C56.1708 111.481 56.1397 111.398 56.0789 111.339C56.018 111.28 55.9339 111.252 55.85 111.263H47.8251V110.994C47.8156 110.697 47.8458 110.399 47.9146 110.11C47.9602 109.893 48.0693 109.694 48.228 109.539C48.3845 109.384 48.583 109.279 48.7988 109.237C49.1005 109.173 49.4083 109.143 49.7166 109.147H55.9171C56.141 109.147 56.2417 109.047 56.2417 108.845V107.558C56.2417 107.357 56.141 107.267 55.9171 107.267L49.6383 107.312Z" fill="white"/>
</mask>
<g mask="url(#mask3_498_815)">
<rect x="45.6318" y="107.301" width="10.6103" height="9.50225" fill="url(#paint3_linear_498_815)"/>
</g>
<mask id="mask4_498_815" style="mask-type:luminance" maskUnits="userSpaceOnUse" x="62" y="107" width="16" height="10">
<path fill-rule="evenodd" clip-rule="evenodd" d="M74.8206 107.311C74.6418 107.299 74.4623 107.299 74.2834 107.311C74 107.372 73.7512 107.541 73.5895 107.782C73.482 107.949 73.3885 108.125 73.3097 108.308L70.3437 114.821C70.3054 114.897 70.2274 114.945 70.1423 114.945H69.9744C69.8877 114.951 69.8065 114.902 69.7729 114.821L66.7958 108.308C66.7264 108.121 66.6323 107.944 66.516 107.782C66.4367 107.658 66.334 107.552 66.2138 107.468C66.0909 107.39 65.9541 107.337 65.8109 107.311C65.632 107.298 65.4525 107.298 65.2736 107.311H63.7179C63.3489 107.262 62.9769 107.377 62.6994 107.625C62.4946 107.96 62.4042 108.353 62.442 108.744V116.579C62.442 116.78 62.5539 116.87 62.7777 116.87H64.2327C64.4342 116.87 64.5461 116.78 64.5461 116.579V109.494C64.5461 109.404 64.5461 109.36 64.658 109.36H64.7812C64.8593 109.351 64.9349 109.391 64.9714 109.46L67.859 115.549C67.9558 115.764 68.0719 115.97 68.206 116.165C68.3161 116.321 68.448 116.46 68.5977 116.579C68.7379 116.684 68.8977 116.76 69.0678 116.803C69.2684 116.856 69.476 116.879 69.6834 116.87H70.3661C70.5772 116.879 70.7885 116.856 70.9929 116.803C71.163 116.76 71.3228 116.684 71.463 116.579C71.6092 116.46 71.7374 116.32 71.8435 116.165C71.9774 115.968 72.0971 115.762 72.2016 115.549L75.0781 109.46C75.1146 109.391 75.1902 109.351 75.2683 109.36H75.3914C75.4698 109.36 75.5146 109.36 75.5146 109.494V116.579C75.5146 116.78 75.6153 116.87 75.8279 116.87H77.2829C77.4956 116.87 77.6075 116.78 77.6075 116.579V108.744C77.6513 108.353 77.5605 107.958 77.3501 107.625C77.081 107.378 76.7161 107.263 76.354 107.311H74.8206Z" fill="white"/>
</mask>
<g mask="url(#mask4_498_815)">
<rect x="62.4424" y="107.3" width="15.1655" height="9.50225" fill="url(#paint4_linear_498_815)"/>
</g>
<mask id="mask5_498_815" style="mask-type:luminance" maskUnits="userSpaceOnUse" x="78" y="107" width="15" height="10">
<path fill-rule="evenodd" clip-rule="evenodd" d="M85.3073 109.326C85.3396 109.27 85.3995 109.236 85.464 109.237H85.5536C85.6165 109.242 85.6739 109.275 85.7103 109.326L87.9487 113.311H83.0353L85.3073 109.326ZM84.9939 107.312C84.7123 107.307 84.4343 107.376 84.1881 107.513C83.8956 107.732 83.658 108.015 83.4942 108.341L78.8046 116.489C78.7748 116.561 78.7748 116.642 78.8046 116.713C78.8046 116.78 78.9053 116.803 79.0285 116.803H80.8864C81.0171 116.81 81.1416 116.746 81.211 116.635L82.1959 114.878H88.9113L89.9297 116.635C89.9932 116.752 90.1219 116.819 90.2543 116.803H92.0675C92.1794 116.803 92.2466 116.803 92.2689 116.713C92.2913 116.624 92.2689 116.59 92.2689 116.489L87.4563 108.341C87.2866 108.009 87.0365 107.724 86.7288 107.513C86.4446 107.37 86.129 107.301 85.811 107.312H84.9939Z" fill="white"/>
</mask>
<g mask="url(#mask5_498_815)">
<rect x="78.749" y="107.3" width="13.5091" height="9.50225" fill="url(#paint5_linear_498_815)"/>
</g>
<mask id="mask6_498_815" style="mask-type:luminance" maskUnits="userSpaceOnUse" x="93" y="107" width="13" height="10">
<path fill-rule="evenodd" clip-rule="evenodd" d="M103.674 107.312C103.462 107.312 103.361 107.401 103.361 107.603V114.688C103.361 114.777 103.361 114.822 103.238 114.822H103.126C103.051 114.83 102.977 114.796 102.936 114.732L97.6195 108.062C97.5072 107.918 97.3877 107.779 97.2613 107.648C97.1597 107.552 97.047 107.47 96.9255 107.401C96.8014 107.344 96.6693 107.307 96.5338 107.289C96.3437 107.277 96.1531 107.277 95.963 107.289H94.6983C94.3516 107.256 94.0057 107.36 93.7357 107.58C93.4839 107.896 93.3708 108.3 93.4224 108.7V116.534C93.4224 116.736 93.5231 116.825 93.7469 116.825H95.2915C95.5041 116.825 95.6048 116.736 95.6048 116.534V109.45C95.6048 109.36 95.6048 109.315 95.7168 109.315H95.8511C95.922 109.313 95.9891 109.347 96.0302 109.405L101.358 116.031C101.474 116.181 101.601 116.324 101.738 116.456C101.839 116.549 101.952 116.628 102.074 116.691C102.198 116.748 102.33 116.786 102.466 116.803C102.648 116.816 102.832 116.816 103.014 116.803H104.245C104.595 116.835 104.944 116.731 105.219 116.512C105.466 116.194 105.579 115.792 105.532 115.393V107.558C105.532 107.357 105.42 107.267 105.219 107.267L103.674 107.312Z" fill="white"/>
</mask>
<g mask="url(#mask6_498_815)">
<rect x="93.4111" y="107.301" width="12.0653" height="9.50225" fill="url(#paint6_linear_498_815)"/>
</g>
<mask id="mask7_498_815" style="mask-type:luminance" maskUnits="userSpaceOnUse" x="106" y="107" width="15" height="10">
<path fill-rule="evenodd" clip-rule="evenodd" d="M113.199 109.326C113.231 109.27 113.291 109.236 113.356 109.237H113.434C113.499 109.236 113.558 109.27 113.591 109.326L115.829 113.311H110.96L113.199 109.326ZM112.886 107.312C112.604 107.305 112.325 107.375 112.08 107.513C111.787 107.732 111.55 108.015 111.386 108.341L106.696 116.489C106.666 116.561 106.666 116.642 106.696 116.713C106.696 116.78 106.797 116.803 106.92 116.803H108.722C108.853 116.81 108.977 116.746 109.047 116.635L110.032 114.878H116.747L117.754 116.635C117.821 116.754 117.954 116.821 118.09 116.803H119.914C120.026 116.803 120.093 116.803 120.116 116.713C120.146 116.642 120.146 116.561 120.116 116.489L115.393 108.341C115.223 108.009 114.973 107.724 114.665 107.513C114.38 107.372 114.065 107.303 113.747 107.312H112.886Z" fill="white"/>
</mask>
<g mask="url(#mask7_498_815)">
<rect x="106.629" y="107.301" width="13.5091" height="9.50225" fill="url(#paint7_linear_498_815)"/>
</g>
<mask id="mask8_498_815" style="mask-type:luminance" maskUnits="userSpaceOnUse" x="118" y="107" width="13" height="10">
<path fill-rule="evenodd" clip-rule="evenodd" d="M119.164 107.312C118.941 107.312 118.84 107.401 118.84 107.603V108.934C118.84 109.147 118.941 109.248 119.164 109.248H123.641V116.512C123.641 116.713 123.742 116.803 123.955 116.803H125.51C125.723 116.803 125.824 116.713 125.824 116.512V109.248H130.301C130.513 109.248 130.625 109.147 130.625 108.934V107.603C130.625 107.401 130.513 107.312 130.301 107.312H119.164Z" fill="white"/>
</mask>
<g mask="url(#mask8_498_815)">
<rect x="118.829" y="107.3" width="11.8079" height="9.50225" fill="url(#paint8_linear_498_815)"/>
</g>
<mask id="mask9_498_815" style="mask-type:luminance" maskUnits="userSpaceOnUse" x="129" y="107" width="14" height="10">
<path fill-rule="evenodd" clip-rule="evenodd" d="M135.875 109.326C135.907 109.27 135.967 109.236 136.031 109.237H136.121C136.183 109.235 136.24 109.27 136.266 109.326L138.505 113.311H133.591L135.875 109.326ZM135.561 107.312C135.28 107.307 135.002 107.376 134.755 107.513C134.463 107.731 134.225 108.015 134.062 108.341L129.372 116.489C129.342 116.561 129.342 116.641 129.372 116.713C129.372 116.78 129.473 116.803 129.596 116.803H131.454C131.585 116.81 131.709 116.746 131.778 116.635L132.763 114.878H139.479L140.486 116.635C140.553 116.754 140.686 116.82 140.822 116.803H142.635C142.747 116.803 142.814 116.803 142.836 116.713C142.866 116.641 142.866 116.561 142.836 116.489L138.113 108.341C137.944 108.009 137.693 107.724 137.386 107.513C137.101 107.371 136.786 107.301 136.468 107.312H135.561Z" fill="white"/>
</mask>
<g mask="url(#mask9_498_815)">
<rect x="129.316" y="107.3" width="13.5091" height="9.50225" fill="url(#paint9_linear_498_815)"/>
</g>
<mask id="mask10_498_815" style="mask-type:luminance" maskUnits="userSpaceOnUse" x="141" y="107" width="13" height="10">
<path fill-rule="evenodd" clip-rule="evenodd" d="M141.84 107.312C141.628 107.312 141.516 107.401 141.516 107.603V108.934C141.516 109.147 141.628 109.248 141.84 109.248H146.317V116.512C146.317 116.713 146.418 116.803 146.63 116.803H148.186C148.399 116.803 148.5 116.713 148.5 116.512V109.248H152.977C153.189 109.248 153.301 109.147 153.301 108.934V107.603C153.301 107.401 153.189 107.312 152.977 107.312H141.84Z" fill="white"/>
</mask>
<g mask="url(#mask10_498_815)">
<rect x="141.505" y="107.3" width="11.8079" height="9.50225" fill="url(#paint10_linear_498_815)"/>
</g>
<mask id="mask11_498_815" style="mask-type:luminance" maskUnits="userSpaceOnUse" x="19" y="19" width="71" height="50">
<path fill-rule="evenodd" clip-rule="evenodd" d="M74.7865 19.4299C62.6764 24.6567 56.8788 32.1891 54.2038 37.595C52.4847 41.0138 51.6388 44.8052 51.7415 48.6306V53.3201C49.1337 54.0364 46.5483 54.8535 44.0189 55.7712C41.2656 56.7897 38.557 57.909 35.9045 59.1289C30.2956 61.8017 24.9454 64.9863 19.9219 68.6424C25.1514 66.667 30.4872 64.9855 35.9045 63.6058C38.5794 62.9119 41.2768 62.2963 44.0189 61.7479C46.5595 61.2331 49.1449 60.7854 51.7415 60.3937C54.3382 60.0019 57.0019 59.6774 59.6657 59.4087V49.4364C59.572 46.8335 60.1177 44.2472 61.255 41.904C63.1577 37.9643 67.1981 32.4801 75.7154 28.4733C78.8913 29.9445 81.8239 31.892 84.4118 34.2485C85.2394 32.6425 86.2538 31.1397 87.4337 29.7716L89.4595 27.5331C85.6636 24.1501 81.3332 21.4195 76.6444 19.4523L75.7154 19.0605L74.7865 19.4299Z" fill="white"/>
</mask>
<g mask="url(#mask11_498_815)">
<rect x="19.9219" y="19.0269" width="69.5377" height="49.6378" fill="url(#paint11_linear_498_815)"/>
</g>
<mask id="mask12_498_815" style="mask-type:luminance" maskUnits="userSpaceOnUse" x="91" y="42" width="41" height="27">
<path fill-rule="evenodd" clip-rule="evenodd" d="M98.8059 42.5193H98.7276H98.6045C98.2911 42.6386 97.9777 42.773 97.6643 42.9222L97.5188 42.9893C97.2278 43.1125 96.948 43.258 96.6458 43.4035L96.5227 43.4594L96.3436 43.5601C96.075 43.6945 95.7952 43.84 95.5266 43.9966L95.2916 44.2653H95.1908L94.4074 44.7241C94.3559 44.7678 94.2996 44.8054 94.2395 44.8361C93.8701 45.0823 93.5456 45.295 93.2658 45.4964L93.0755 45.6419L92.1465 46.3246L91.7324 46.6716C91.845 47.5774 91.8973 48.4898 91.8891 49.4025V59.3748C94.5603 59.6435 97.2017 59.9718 99.8133 60.3598C102.425 60.7478 105.003 61.1992 107.547 61.714C110.278 62.2625 112.987 62.8333 115.65 63.572C121.069 64.9546 126.408 66.6322 131.644 68.5973C126.615 64.9464 121.262 61.7656 115.65 59.095C113.009 57.8415 110.3 56.7223 107.547 55.7374C105.006 54.8196 102.432 53.9914 99.8133 53.2862V48.6303C99.8391 46.5476 99.6136 44.4695 99.1417 42.4409L98.9403 42.5193" fill="white"/>
</mask>
<g mask="url(#mask12_498_815)">
<rect x="91.5977" y="42.4409" width="39.9005" height="26.2235" fill="url(#paint12_linear_498_815)"/>
</g>
<mask id="mask13_498_815" style="mask-type:luminance" maskUnits="userSpaceOnUse" x="82" y="17" width="52" height="38">
<path fill-rule="evenodd" clip-rule="evenodd" d="M114.105 21.7577C114.105 21.7577 114.105 21.7577 114.049 21.7577H113.915H114.116M114.351 17.8964C112.578 18.0966 110.874 18.7016 109.371 19.6648C109.527 19.0828 109.706 18.5455 109.886 17.9076C108.356 18.5017 106.861 19.1818 105.409 19.9446C103.17 21.0638 100.395 22.53 98.0777 23.8955C96.3521 24.7907 94.7589 25.9207 93.3434 27.2531C93.171 27.4049 93.0066 27.5656 92.8509 27.7344C92.6015 28.0027 92.3697 28.2868 92.157 28.585C91.9314 28.887 91.7222 29.2008 91.5302 29.5252C90.9058 30.5845 90.4027 31.7109 90.0305 32.8829L89.2582 31.4391C88.0403 32.8547 87.0131 34.4238 86.2027 36.1062C86.0236 36.4644 85.8557 36.8337 85.699 37.2255C85.5424 37.6172 85.3633 37.9753 85.2178 38.3447C84.1189 41.0482 83.3668 43.88 82.9793 46.7725C84.0108 44.4469 85.2154 42.2022 86.5832 40.0571L87.2324 39.0834C87.445 38.7588 87.6689 38.4454 87.8927 38.1432C89.5422 35.8503 91.4169 33.7281 93.4889 31.8084L93.8694 31.4726L94.3171 31.0809L95.1565 30.3758L95.4363 30.1519C97.0157 28.8883 98.6839 27.74 100.428 26.7159C101.603 26.022 102.734 25.4176 103.786 24.8916C104.424 24.5894 105.028 24.3208 105.621 24.0745L105.901 23.9626C106.45 23.7388 107.02 23.5485 107.457 23.3694L107.781 23.2687H107.927C108.352 23.1232 108.766 22.9889 109.158 22.877H109.382C109.774 22.765 110.154 22.6531 110.501 22.5748H110.658L111.643 22.3621H111.889L112.639 22.2278H112.874L113.344 22.1607L113.87 22.0935C113.624 22.1942 111.632 22.9553 108.654 24.4327C106.225 25.6455 103.871 27.0022 101.603 28.4955C99.9804 29.6147 98.2456 30.7339 96.6339 32.1442L96.4436 32.3009L95.705 32.9164L95.6042 33.006L94.776 33.7335C94.3619 34.1028 93.9478 34.4946 93.5336 34.8527C92.3776 35.9517 91.2793 37.1098 90.2431 38.3223C89.8066 38.8484 89.3813 39.3744 88.9672 39.9228C88.721 40.2362 88.4859 40.5496 88.2621 40.863C88.027 41.1875 87.8032 41.5233 87.5794 41.8591C85.172 45.378 83.4937 49.3434 82.6436 53.5214C83.0337 53.8457 83.4072 54.1893 83.7628 54.5511C83.8771 54.0854 84.0153 53.6259 84.1769 53.1745C84.1721 53.1298 84.1721 53.0848 84.1769 53.0402C84.3336 52.6261 84.5015 52.2119 84.6806 51.809C84.7113 51.7515 84.7375 51.6916 84.7589 51.6299C84.9604 51.2046 85.1842 50.8017 85.4192 50.3988C85.4499 50.3352 85.4874 50.2751 85.5312 50.2197C85.7438 49.8504 85.99 49.481 86.2475 49.1005C86.3261 48.9989 86.3586 48.869 86.337 48.7423C86.6056 48.3618 86.8966 48.0036 87.1988 47.6231L87.3555 47.444C87.8646 46.8509 88.4064 46.2867 88.9784 45.754L89.2806 45.463L89.4261 45.3287L89.9521 44.8922L90.1424 44.7243L90.4558 44.4557L90.8139 44.2654L91.0266 44.1087L91.5974 43.6834L91.7988 43.5379C92.1346 43.3029 92.4816 43.079 92.8285 42.8552L93.0076 42.7545C93.3322 42.5418 93.6568 42.3627 93.9813 42.1725C94.0409 42.129 94.1047 42.0915 94.1716 42.0605C94.5298 41.8591 94.9028 41.6688 95.2908 41.4897C95.358 41.4897 95.4363 41.4226 95.5147 41.3778L96.4772 40.9189L96.6115 40.8518L97.63 40.4153L97.8763 40.3257L98.3128 40.1578L98.8612 39.9564L99.432 39.7213L100.551 39.2289C102.422 38.3898 104.232 37.4212 105.968 36.3301C107.354 35.5252 108.626 34.539 109.751 33.3977L108.005 32.8381C109.549 32.2885 110.993 31.4909 112.281 30.4765C114.665 28.7753 117.351 26.5256 119.746 24.8804C123.272 21.9592 132.158 20.6609 133.289 20.6609H133.345C128.835 18.7006 123.98 17.6544 119.063 17.583C117.47 17.584 115.88 17.7112 114.307 17.9635" fill="white"/>
</mask>
<g mask="url(#mask13_498_815)">
<rect x="82.6104" y="17.5156" width="50.7682" height="36.8114" fill="url(#paint13_linear_498_815)"/>
</g>
<path d="M12.8486 90.6237L14.6282 92.4033L17.001 90.0305L14.6282 87.6689L12.8486 89.4485L11.0691 87.6689L8.69629 90.0305L11.0691 92.4033L12.8486 90.6237Z" fill="white"/>
<path d="M20.4707 90.8143L21.4892 92.2693V99.4883H8.2711C5.58495 99.4883 2.56303 97.4737 2.56303 94.5413C2.59222 93.51 2.90596 92.5067 3.46961 91.6425C4.18774 90.4105 5.4196 89.5647 6.82729 89.3369H6.31245C2.82873 89.3431 0.00616043 92.1656 0 95.6494C0.0123109 99.1287 2.83309 101.944 6.31245 101.951H24.8805V92.2917L25.9997 90.8367H20.4819L20.4707 90.8143Z" fill="white"/>
<path fill-rule="evenodd" clip-rule="evenodd" d="M150.973 87.2886V87.9153H150.995V95.5597V95.8059C151.127 97.2705 150.932 98.7459 150.425 100.126C148.595 103.814 144.224 105.456 140.419 103.887L139.859 103.641C142.77 104.139 145.674 102.719 147.067 100.115C147.272 99.6407 147.408 99.1393 147.47 98.6264V97.3728C146.6 98.2979 145.487 98.9576 144.258 99.2755C140.352 100.025 138.214 95.638 139.781 92.6497C140.728 90.8975 142.342 89.602 144.258 89.057C145.05 88.8271 145.843 88.7249 146.635 88.6228C148.081 88.4364 149.527 88.2501 150.973 87.2886ZM146.228 96.9699C146.731 96.7684 147.392 96.4327 147.515 95.8507V90.5119C145.657 90.8029 143.262 91.3514 142.5 93.3212C142.345 93.7739 142.287 94.2548 142.333 94.7314C142.432 95.6353 143.003 96.419 143.832 96.7908C144.578 97.1557 145.436 97.2198 146.228 96.9699Z" fill="white"/>
<rect width="3.34649" height="3.34649" transform="matrix(0.7076 -0.706614 0.706612 0.707601 116.763 84.2739)" fill="white"/>
<path d="M132.058 85.2179L133.837 86.9975L136.21 84.6248L133.837 82.2632L132.058 84.0428L130.278 82.2632L127.905 84.6248L130.278 86.9975L132.058 85.2179Z" fill="white"/>
<path fill-rule="evenodd" clip-rule="evenodd" d="M125.902 91.6984C124.335 94.6867 126.462 99.0853 130.379 98.3242C131.603 98.0075 132.712 97.3519 133.58 96.4327V99.7232H123.272V86.2925C121.832 87.2502 120.391 87.4389 118.951 87.6275C118.153 87.732 117.355 87.8366 116.557 88.0721C114.642 88.6133 113.028 89.9049 112.08 91.6536C110.513 94.6419 112.65 99.0405 116.557 98.2794C117.783 97.9685 118.894 97.312 119.758 96.3879V99.6785H111.039V99.6225H98.4362C95.8172 99.6225 92.8401 97.6526 92.8401 94.7874C92.8653 93.7761 93.1714 92.7918 93.7243 91.9446C94.4273 90.7453 95.6306 89.9239 97.0036 89.7061H96.5C93.094 89.7061 90.333 92.4672 90.333 95.8731C90.3391 99.2783 93.0948 102.039 96.5 102.051H137.072V86.382C135.632 87.3398 134.191 87.5284 132.751 87.717C131.953 87.8216 131.155 87.9261 130.357 88.1616C128.442 88.7029 126.828 89.9944 125.88 91.7431L125.902 91.6984ZM119.802 94.9553C119.679 95.5261 119.03 95.8619 118.526 96.0745C117.734 96.3188 116.879 96.2548 116.131 95.8955C115.301 95.5213 114.728 94.7399 114.62 93.8361C114.577 93.3549 114.638 92.8701 114.799 92.4147C115.549 90.4448 117.944 89.9076 119.802 89.6166V94.9553ZM132.304 96.0745C132.808 95.8619 133.457 95.5261 133.58 94.9553V89.6166C131.722 89.9076 129.327 90.4448 128.577 92.4147C128.416 92.8701 128.355 93.3549 128.398 93.8361C128.506 94.7399 129.079 95.5213 129.909 95.8955C130.656 96.2548 131.512 96.3188 132.304 96.0745Z" fill="white"/>
<rect x="64.0127" y="87.6904" width="3.34649" height="3.34649" transform="rotate(-45 64.0127 87.6904)" fill="white"/>
<path fill-rule="evenodd" clip-rule="evenodd" d="M77.8699 91.167C78.6358 91.2665 79.4106 91.3672 80.1931 91.5751H80.126C82.0434 92.1167 83.659 93.4132 84.6029 95.1679C86.1922 98.145 84.0657 102.544 80.126 101.794C79.0627 101.524 78.0872 100.985 77.2943 100.227L76.925 99.891V101.85H63.9196H63.5838H58.8047L59.8232 100.663V84.9941L58.8047 83.5391H64.3784L63.2592 84.9941V99.544H66.5609V94.8545L66.6169 92.851C66.7683 91.1111 68.2281 89.7778 69.9746 89.7844C70.4153 89.785 70.8519 89.8685 71.2617 90.0306C70.4641 90.6365 69.9961 91.5808 69.997 92.5824V92.851V99.5664H73.4778V89.7956C74.9009 90.7813 76.3681 90.972 77.8699 91.167ZM80.5289 99.2306C81.3587 98.8565 81.932 98.0751 82.0399 97.1713V97.1265C82.0831 96.6453 82.022 96.1605 81.8608 95.7051C81.1109 93.7464 78.7158 93.198 76.8578 92.907V98.2905C77.0145 98.9061 77.6301 99.253 78.1338 99.4097C78.9262 99.654 79.7816 99.59 80.5289 99.2306Z" fill="white"/>
<path fill-rule="evenodd" clip-rule="evenodd" d="M52.0774 90.915C54.5642 90.928 56.7539 92.5556 57.4833 94.933L57.5393 94.9666C57.6518 95.3311 57.7268 95.7061 57.7631 96.0858V96.5671V101.928H27.3984L28.4169 100.731V85.0614L27.3984 83.6064H32.905L31.7858 85.0614V99.6114H37.673V85.0614L36.6545 83.6064H42.1611L41.0418 85.0614V90.915H52.0774ZM41.0418 99.589H54.2823L54.2263 95.9515C54.2367 95.6984 54.2065 95.4452 54.1368 95.2017C53.965 94.2061 53.1099 93.4732 52.0998 93.4557H41.0418V99.589Z" fill="white"/>
<path d="M107.524 51.037C110.277 52.0443 112.986 53.1635 115.627 54.3946V46.1907C115.73 41.573 114.928 36.9798 113.266 32.6704C112.93 32.9054 112.594 33.1405 112.258 33.3531L112.068 34.0023C111.956 34.4052 111.71 35.2558 108.52 37.4719C108.028 37.8189 107.401 38.2218 106.707 38.6583C107.289 41.1257 107.564 43.6558 107.524 46.1907V51.037Z" fill="white"/>
<path d="M44.1313 46.2129C43.9523 41.536 45.0347 36.897 47.2652 32.7822C51.0146 25.7423 59.0059 15.9938 75.8279 8.74117C83.4521 11.8541 90.4144 16.3892 96.3434 22.1048C98.6602 20.7169 101.369 19.2619 103.73 18.0867C98.0558 11.9646 89.6951 5.60733 77.3836 0.615576L75.8615 0L74.3393 0.615576C54.1932 8.77475 44.635 20.5602 40.1357 28.988C37.2681 34.2678 35.8327 40.2063 35.9722 46.2129V54.4169C38.6247 53.1634 41.3333 52.0441 44.0866 51.0592L44.1313 46.2129Z" fill="white"/>
<path d="M120.339 75.1673C110.495 68.7222 99.3728 64.484 87.736 62.7438L86.8183 62.6207L85.9005 62.5088C85.7678 61.0325 85.3214 59.6015 84.591 58.3117C84.3854 57.9497 84.1613 57.5985 83.9195 57.2596C83.5981 56.8176 83.2506 56.3952 82.8786 55.9949C82.6771 55.7822 82.4757 55.5808 82.2742 55.4017C81.8937 55.0435 81.5243 54.7302 81.155 54.4727C80.7956 54.1995 80.422 53.9454 80.0357 53.7117L79.5881 53.4542V50.8017H80.5394C80.6065 50.7345 80.6513 50.6674 80.7073 50.6002C82.4421 48.7087 81.1214 47.6343 80.5618 47.3097L80.3379 47.1978H71.2162C71.2162 47.1978 68.5636 48.317 71.026 50.8017H71.9773V53.4542C71.9773 53.4542 66.2692 56.353 65.6984 62.5088L64.7807 62.6207L63.8741 62.7438C52.2332 64.4818 41.1068 68.7201 31.2598 75.1673C60.1647 65.5865 91.3894 65.5865 120.294 75.1673" fill="white"/>
<defs>
<linearGradient id="paint0_linear_498_815" x1="3.42517" y1="128.562" x2="21.4447" y2="128.562" gradientUnits="userSpaceOnUse">
<stop stop-color="#00A88E"/>
<stop offset="0.12" stop-color="#00A88E"/>
<stop offset="0.78" stop-color="#00575E"/>
<stop offset="1" stop-color="#00575E"/>
</linearGradient>
<linearGradient id="paint1_linear_498_815" x1="22.7477" y1="138.185" x2="36.2344" y2="138.185" gradientUnits="userSpaceOnUse">
<stop stop-color="#00A88E"/>
<stop offset="0.12" stop-color="#00A88E"/>
<stop offset="0.78" stop-color="#00575E"/>
<stop offset="1" stop-color="#00575E"/>
</linearGradient>
<linearGradient id="paint2_linear_498_815" x1="27.5973" y1="102.306" x2="40.0095" y2="102.306" gradientUnits="userSpaceOnUse">
<stop stop-color="#00A88E"/>
<stop offset="0.12" stop-color="#00A88E"/>
<stop offset="0.78" stop-color="#00575E"/>
<stop offset="1" stop-color="#00575E"/>
</linearGradient>
<linearGradient id="paint3_linear_498_815" x1="45.6976" y1="117.173" x2="56.3079" y2="117.173" gradientUnits="userSpaceOnUse">
<stop stop-color="#00A88E"/>
<stop offset="0.12" stop-color="#00A88E"/>
<stop offset="0.78" stop-color="#00575E"/>
<stop offset="1" stop-color="#00575E"/>
</linearGradient>
<linearGradient id="paint4_linear_498_815" x1="62.1906" y1="115.523" x2="77.3561" y2="115.523" gradientUnits="userSpaceOnUse">
<stop stop-color="#00A88E"/>
<stop offset="0.12" stop-color="#00A88E"/>
<stop offset="0.78" stop-color="#00575E"/>
<stop offset="1" stop-color="#00575E"/>
</linearGradient>
<linearGradient id="paint5_linear_498_815" x1="83.8242" y1="137.804" x2="97.3109" y2="137.804" gradientUnits="userSpaceOnUse">
<stop stop-color="#00A88E"/>
<stop offset="0.12" stop-color="#00A88E"/>
<stop offset="0.78" stop-color="#00575E"/>
<stop offset="1" stop-color="#00575E"/>
</linearGradient>
<linearGradient id="paint6_linear_498_815" x1="96.1112" y1="127.893" x2="108.176" y2="127.893" gradientUnits="userSpaceOnUse">
<stop stop-color="#00A88E"/>
<stop offset="0.12" stop-color="#00A88E"/>
<stop offset="0.78" stop-color="#00575E"/>
<stop offset="1" stop-color="#00575E"/>
</linearGradient>
<linearGradient id="paint7_linear_498_815" x1="111.67" y1="137.614" x2="125.157" y2="137.614" gradientUnits="userSpaceOnUse">
<stop stop-color="#00A88E"/>
<stop offset="0.12" stop-color="#00A88E"/>
<stop offset="0.78" stop-color="#00575E"/>
<stop offset="1" stop-color="#00575E"/>
</linearGradient>
<linearGradient id="paint8_linear_498_815" x1="122.23" y1="131.204" x2="134.038" y2="131.204" gradientUnits="userSpaceOnUse">
<stop stop-color="#00A88E"/>
<stop offset="0.12" stop-color="#00A88E"/>
<stop offset="0.78" stop-color="#00575E"/>
<stop offset="1" stop-color="#00575E"/>
</linearGradient>
<linearGradient id="paint9_linear_498_815" x1="134.615" y1="138.744" x2="148.102" y2="138.744" gradientUnits="userSpaceOnUse">
<stop stop-color="#00A88E"/>
<stop offset="0.12" stop-color="#00A88E"/>
<stop offset="0.78" stop-color="#00575E"/>
<stop offset="1" stop-color="#00575E"/>
</linearGradient>
<linearGradient id="paint10_linear_498_815" x1="144.906" y1="131.204" x2="156.714" y2="131.204" gradientUnits="userSpaceOnUse">
<stop stop-color="#00A88E"/>
<stop offset="0.12" stop-color="#00A88E"/>
<stop offset="0.78" stop-color="#00575E"/>
<stop offset="1" stop-color="#00575E"/>
</linearGradient>
<linearGradient id="paint11_linear_498_815" x1="19.0162" y1="65.6352" x2="88.5539" y2="65.6352" gradientUnits="userSpaceOnUse">
<stop stop-color="#00A88E"/>
<stop offset="0.12" stop-color="#00A88E"/>
<stop offset="0.78" stop-color="#00575E"/>
<stop offset="1" stop-color="#00575E"/>
</linearGradient>
<linearGradient id="paint12_linear_498_815" x1="95.6017" y1="85.238" x2="135.502" y2="85.238" gradientUnits="userSpaceOnUse">
<stop stop-color="#00A88E"/>
<stop offset="0.12" stop-color="#00A88E"/>
<stop offset="0.78" stop-color="#00575E"/>
<stop offset="1" stop-color="#00575E"/>
</linearGradient>
<linearGradient id="paint13_linear_498_815" x1="77.5488" y1="32.5516" x2="128.317" y2="32.5516" gradientUnits="userSpaceOnUse">
<stop stop-color="#00A88E"/>
<stop offset="0.12" stop-color="#00A88E"/>
<stop offset="0.78" stop-color="#00575E"/>
<stop offset="1" stop-color="#00575E"/>
</linearGradient>
</defs>
</svg>
