<svg width="101" height="79" viewBox="0 0 101 79" fill="none" xmlns="http://www.w3.org/2000/svg">
<mask id="mask0_325_1246" style="mask-type:luminance" maskUnits="userSpaceOnUse" x="0" y="71" width="13" height="7">
<path fill-rule="evenodd" clip-rule="evenodd" d="M10.9283 71.2405C10.8997 71.2303 10.8685 71.2303 10.8398 71.2405C10.8064 71.2581 10.7841 71.2917 10.7809 71.3297L9.30608 76.1816C9.29896 76.2167 9.26793 76.2417 9.23234 76.241H9.18072C9.14331 76.2424 9.10979 76.2179 9.09961 76.1816L7.54372 71.7235C7.49339 71.5638 7.39871 71.422 7.27089 71.3148C7.12785 71.2318 6.96372 71.193 6.79896 71.2033H5.86247C5.7152 71.1949 5.56879 71.2311 5.44216 71.3074C5.30636 71.4102 5.20999 71.5572 5.16933 71.7235L3.64294 76.1816C3.63582 76.2167 3.6048 76.2417 3.5692 76.241H3.52496C3.48071 76.241 3.45122 76.241 3.45122 76.1816L1.92482 71.3297C1.89533 71.2554 1.85109 71.2182 1.79209 71.2182H0.516414C0.464797 71.2182 0.435301 71.2182 0.427928 71.2702C0.413998 71.3188 0.413998 71.3703 0.427928 71.4188L2.16079 76.8354C2.19283 76.9538 2.23733 77.0684 2.29352 77.1772C2.33406 77.2584 2.38904 77.3315 2.45574 77.3927C2.51907 77.442 2.5919 77.4774 2.66959 77.4967C2.76279 77.5053 2.85658 77.5053 2.94979 77.4967H4.01901C4.17438 77.5076 4.32785 77.457 4.44669 77.3555C4.5864 77.2009 4.68752 77.015 4.74165 76.8131L6.21642 72.5333C6.22386 72.4952 6.25923 72.4693 6.29753 72.4739C6.33584 72.4693 6.3712 72.4952 6.37865 72.5333L7.85342 76.8131C7.91074 77.0137 8.01148 77.1989 8.14838 77.3555C8.26797 77.4556 8.42088 77.5061 8.57606 77.4967H9.68214C9.83602 77.5053 9.98784 77.4579 10.1098 77.363C10.2536 77.2084 10.3553 77.019 10.4048 76.8131L12.2114 71.3965C12.2218 71.3501 12.2218 71.3018 12.2114 71.2554C12.2007 71.2161 12.163 71.1908 12.1229 71.1959L10.9283 71.2405Z" fill="white"/>
</mask>
<g mask="url(#mask0_325_1246)">
<rect x="0.413086" y="71.2331" width="11.8793" height="6.30822" fill="url(#paint0_linear_325_1246)"/>
</g>
<mask id="mask1_325_1246" style="mask-type:luminance" maskUnits="userSpaceOnUse" x="11" y="71" width="10" height="7">
<path fill-rule="evenodd" clip-rule="evenodd" d="M15.9054 72.5779C15.9277 72.5419 15.9665 72.5195 16.0087 72.5185H16.0676C16.1102 72.5181 16.1496 72.5408 16.1709 72.5779L17.6457 75.2231H14.4085L15.9054 72.5779ZM15.6989 71.2405C15.5156 71.236 15.3345 71.2822 15.1754 71.3742C14.978 71.5162 14.8185 71.7051 14.7108 71.9241L11.6286 77.3332C11.6049 77.3799 11.6049 77.4352 11.6286 77.4818C11.6286 77.5264 11.6876 77.5413 11.7687 77.5413H12.9927C13.0814 77.5492 13.167 77.5061 13.214 77.4298L13.8629 76.2633H18.2872L18.9582 77.4298C19.0014 77.5062 19.0852 77.5499 19.172 77.5413H20.3666C20.4404 77.5413 20.492 77.5413 20.5067 77.4818C20.5264 77.4343 20.5264 77.3808 20.5067 77.3332L17.3876 71.9241C17.2758 71.7034 17.111 71.5144 16.9083 71.3742C16.7235 71.2797 16.5181 71.2337 16.311 71.2405H15.6989Z" fill="white"/>
</mask>
<g mask="url(#mask1_325_1246)">
<rect x="11.5845" y="71.2331" width="8.90027" height="6.30821" fill="url(#paint1_linear_325_1246)"/>
</g>
<mask id="mask2_325_1246" style="mask-type:luminance" maskUnits="userSpaceOnUse" x="20" y="71" width="10" height="8">
<path fill-rule="evenodd" clip-rule="evenodd" d="M22.8814 76.0776C22.7409 76.0488 22.6109 75.982 22.5053 75.8844C22.4054 75.778 22.3343 75.6475 22.2988 75.5054C22.2571 75.3101 22.2373 75.1108 22.2398 74.911V73.7148C22.2373 73.5175 22.2571 73.3205 22.2988 73.1278C22.3289 72.9836 22.4007 72.8517 22.5053 72.7488C22.6084 72.6462 22.7392 72.5764 22.8814 72.5482C23.0825 72.5055 23.2878 72.4856 23.4934 72.4888H26.2881C26.4912 72.486 26.694 72.5059 26.8927 72.5482C27.0376 72.575 27.1711 72.6449 27.2762 72.7488C27.3743 72.8555 27.4429 72.9861 27.4753 73.1278C27.5207 73.3199 27.5405 73.5173 27.5343 73.7148V74.911C27.5405 75.1109 27.5206 75.3107 27.4753 75.5054C27.4394 75.6458 27.3712 75.7756 27.2762 75.8844C27.1677 75.9819 27.0353 76.0486 26.8927 76.0776C26.6946 76.1235 26.4913 76.1435 26.2881 76.137H23.4934C23.2877 76.1439 23.082 76.1239 22.8814 76.0776ZM23.4344 71.2405C23.0253 71.2339 22.6169 71.2763 22.2177 71.3668C21.9193 71.4411 21.6417 71.5834 21.4066 71.7829C21.187 71.9816 21.0284 72.2394 20.9494 72.5259C20.8402 72.8817 20.7904 73.2533 20.8019 73.6256V75.0225C20.7914 75.3947 20.8413 75.7661 20.9494 76.1221C21.0313 76.4073 21.1895 76.6644 21.4066 76.8651C21.6405 77.065 21.9187 77.2052 22.2177 77.2738C22.6169 77.3644 23.0253 77.4068 23.4344 77.4001H25.5286L26.6125 78.8862C26.6749 78.9684 26.7761 79.0109 26.878 78.9976H28.0799C28.1684 78.9976 28.22 78.9976 28.2274 78.9084C28.2432 78.8627 28.2432 78.813 28.2274 78.7673L27.1435 77.3407C27.6895 77.3139 28.2021 77.0677 28.5666 76.6571C28.8885 76.1708 29.0415 75.5908 29.0017 75.0076V73.6107C29.0096 73.2387 28.9599 72.8677 28.8542 72.5111C28.7792 72.2228 28.6199 71.9639 28.397 71.7681C28.161 71.5657 27.8803 71.423 27.5785 71.352C27.1794 71.2614 26.7709 71.219 26.3618 71.2256L23.4344 71.2405Z" fill="white"/>
</mask>
<g mask="url(#mask2_325_1246)">
<rect x="20.7944" y="71.2331" width="8.17763" height="7.76453" fill="url(#paint2_linear_325_1246)"/>
</g>
<mask id="mask3_325_1246" style="mask-type:luminance" maskUnits="userSpaceOnUse" x="30" y="71" width="8" height="7">
<path fill-rule="evenodd" clip-rule="evenodd" d="M32.7031 71.2405C32.294 71.2338 31.8856 71.2762 31.4864 71.3668C31.1874 71.4395 30.9096 71.582 30.6753 71.7829C30.4537 71.9812 30.2926 72.2389 30.2107 72.5259C30.1079 72.883 30.0607 73.2539 30.0706 73.6256V77.3407C30.0706 77.4744 30.137 77.5338 30.2845 77.5338H31.3021C31.4348 77.5338 31.5086 77.4744 31.5086 77.3407V75.0076H36.7956C36.8509 75.0145 36.9063 74.9959 36.9464 74.957C36.9865 74.918 37.007 74.8629 37.0021 74.807V74.0639C37.007 74.008 36.9865 73.9529 36.9464 73.9139C36.9063 73.875 36.8509 73.8564 36.7956 73.8633H31.5086V73.685C31.5023 73.4876 31.5222 73.2902 31.5675 73.098C31.5976 72.9539 31.6694 72.822 31.774 72.7191C31.8771 72.6164 32.0079 72.5466 32.1501 72.5185C32.3488 72.4762 32.5516 72.4562 32.7547 72.459H36.8399C36.9873 72.459 37.0537 72.3922 37.0537 72.2584V71.4039C37.0537 71.2702 36.9873 71.2108 36.8399 71.2108L32.7031 71.2405Z" fill="white"/>
</mask>
<g mask="url(#mask3_325_1246)">
<rect x="30.0635" y="71.233" width="6.99043" height="6.30822" fill="url(#paint3_linear_325_1246)"/>
</g>
<mask id="mask4_325_1246" style="mask-type:luminance" maskUnits="userSpaceOnUse" x="41" y="71" width="11" height="7">
<path fill-rule="evenodd" clip-rule="evenodd" d="M49.2943 71.2405C49.1765 71.2322 49.0582 71.2322 48.9404 71.2405C48.7536 71.2809 48.5897 71.3928 48.4832 71.5526C48.4124 71.6637 48.3508 71.7805 48.2989 71.9018L46.3448 76.2261C46.3196 76.2766 46.2681 76.3083 46.212 76.3079H46.1014C46.0443 76.3123 45.9908 76.2794 45.9687 76.2261L44.0073 71.9018C43.9615 71.7776 43.8995 71.6602 43.8229 71.5526C43.7707 71.4708 43.7031 71.4001 43.6238 71.3445C43.5429 71.2928 43.4527 71.2575 43.3584 71.2405C43.2405 71.2317 43.1222 71.2317 43.0044 71.2405H41.9794C41.7364 71.2079 41.4913 71.2839 41.3084 71.4485C41.1735 71.6712 41.114 71.9319 41.1388 72.1916V77.3927C41.1388 77.5264 41.2126 77.5859 41.36 77.5859H42.3186C42.4514 77.5859 42.5251 77.5264 42.5251 77.3927V72.6894C42.5251 72.6299 42.5251 72.6002 42.5989 72.6002H42.68C42.7314 72.5943 42.7813 72.6208 42.8053 72.6671L44.7078 76.7091C44.7715 76.852 44.848 76.9888 44.9364 77.1178C45.0089 77.2214 45.0958 77.314 45.1945 77.3927C45.2868 77.4626 45.3921 77.5131 45.5042 77.5413C45.6363 77.5769 45.7731 77.5919 45.9097 77.5859H46.3595C46.4986 77.5919 46.6378 77.5768 46.7725 77.5413C46.8845 77.5131 46.9898 77.4626 47.0822 77.3927C47.1785 77.3137 47.2629 77.2211 47.3329 77.1178C47.4211 76.9874 47.4999 76.8508 47.5688 76.7091L49.4639 72.6671C49.488 72.6208 49.5378 72.5943 49.5893 72.6002H49.6704C49.722 72.6002 49.7515 72.6002 49.7515 72.6894V77.3927C49.7515 77.5264 49.8179 77.5859 49.958 77.5859H50.9166C51.0567 77.5859 51.1304 77.5264 51.1304 77.3927V72.1916C51.1592 71.9317 51.0994 71.6696 50.9608 71.4485C50.7835 71.2845 50.5431 71.2083 50.3046 71.2405H49.2943Z" fill="white"/>
</mask>
<g mask="url(#mask4_325_1246)">
<rect x="41.1387" y="71.2331" width="9.9916" height="6.30821" fill="url(#paint4_linear_325_1246)"/>
</g>
<mask id="mask5_325_1246" style="mask-type:luminance" maskUnits="userSpaceOnUse" x="51" y="71" width="10" height="7">
<path fill-rule="evenodd" clip-rule="evenodd" d="M56.2038 72.5779C56.225 72.5408 56.2645 72.5181 56.307 72.5185H56.366C56.4074 72.5219 56.4453 72.5437 56.4692 72.5779L57.944 75.2231H54.7069L56.2038 72.5779ZM55.9973 71.2405C55.8117 71.2372 55.6286 71.2834 55.4664 71.3743C55.2737 71.5193 55.1171 71.7075 55.0092 71.9241L51.9195 77.3333C51.8999 77.3808 51.8999 77.4343 51.9195 77.4819C51.9195 77.5264 51.9859 77.5413 52.067 77.5413H53.2911C53.3772 77.5463 53.4592 77.5036 53.5049 77.4298L54.1538 76.2633H58.5781L59.2492 77.4298C59.2909 77.5077 59.3758 77.5519 59.463 77.5413H60.6576C60.7313 77.5413 60.7756 77.5413 60.7903 77.4819C60.8051 77.4224 60.7903 77.4001 60.7903 77.3333L57.6195 71.9241C57.5078 71.7034 57.343 71.5144 57.1402 71.3743C56.9531 71.2791 56.7451 71.2331 56.5356 71.2405H55.9973Z" fill="white"/>
</mask>
<g mask="url(#mask5_325_1246)">
<rect x="51.8828" y="71.2331" width="8.90027" height="6.30822" fill="url(#paint5_linear_325_1246)"/>
</g>
<mask id="mask6_325_1246" style="mask-type:luminance" maskUnits="userSpaceOnUse" x="61" y="71" width="9" height="7">
<path fill-rule="evenodd" clip-rule="evenodd" d="M68.304 71.2405C68.1639 71.2405 68.0975 71.2999 68.0975 71.4337V76.137C68.0975 76.1964 68.0975 76.2261 68.0164 76.2261H67.9427C67.8931 76.2316 67.8447 76.2086 67.8173 76.1667L64.3147 71.7383C64.2408 71.6427 64.162 71.5509 64.0788 71.4634C64.0119 71.4001 63.9376 71.3452 63.8576 71.2999C63.7758 71.2621 63.6888 71.237 63.5995 71.2256C63.4743 71.2173 63.3486 71.2173 63.2234 71.2256H62.3902C62.1618 71.2032 61.9338 71.2727 61.756 71.4188C61.5901 71.628 61.5156 71.8962 61.5495 72.1618V77.3629C61.5495 77.4967 61.6159 77.5561 61.7634 77.5561H62.781C62.9211 77.5561 62.9874 77.4967 62.9874 77.3629V72.6596C62.9874 72.6002 62.9874 72.5705 63.0612 72.5705H63.1497C63.1964 72.5692 63.2406 72.5915 63.2677 72.6299L66.7776 77.0286C66.8543 77.1287 66.9381 77.223 67.0283 77.3109C67.0948 77.3727 67.1692 77.4252 67.2495 77.467C67.3313 77.5048 67.4184 77.5299 67.5076 77.5413C67.6279 77.5496 67.7487 77.5496 67.869 77.5413H68.6801C68.9106 77.5624 69.1404 77.4932 69.3216 77.3481C69.4845 77.1373 69.5587 76.8704 69.5281 76.6051V71.4039C69.5281 71.2702 69.4543 71.2108 69.3216 71.2108L68.304 71.2405Z" fill="white"/>
</mask>
<g mask="url(#mask6_325_1246)">
<rect x="61.542" y="71.233" width="7.94904" height="6.30822" fill="url(#paint6_linear_325_1246)"/>
</g>
<mask id="mask7_325_1246" style="mask-type:luminance" maskUnits="userSpaceOnUse" x="70" y="71" width="10" height="7">
<path fill-rule="evenodd" clip-rule="evenodd" d="M74.5792 72.5779C74.6005 72.5408 74.6399 72.5181 74.6825 72.5185H74.7341C74.7766 72.5181 74.8161 72.5408 74.8373 72.5779L76.3121 75.2231H73.1045L74.5792 72.5779ZM74.3728 71.2405C74.1871 71.2361 74.0037 71.2823 73.8419 71.3742C73.6492 71.5192 73.4926 71.7075 73.3847 71.9241L70.295 77.3332C70.2754 77.3808 70.2754 77.4343 70.295 77.4818C70.295 77.5264 70.3614 77.5413 70.4425 77.5413H71.6297C71.7158 77.5463 71.7978 77.5036 71.8435 77.4298L72.4924 76.2633H76.9168L77.5804 77.4298C77.6247 77.5089 77.7122 77.553 77.8016 77.5413H79.0036C79.0773 77.5413 79.1216 77.5413 79.1363 77.4818C79.156 77.4343 79.156 77.3808 79.1363 77.3332L76.0245 71.9241C75.9127 71.7034 75.748 71.5144 75.5452 71.3742C75.3575 71.2806 75.1499 71.2347 74.9406 71.2405H74.3728Z" fill="white"/>
</mask>
<g mask="url(#mask7_325_1246)">
<rect x="70.251" y="71.2331" width="8.90027" height="6.30821" fill="url(#paint7_linear_325_1246)"/>
</g>
<mask id="mask8_325_1246" style="mask-type:luminance" maskUnits="userSpaceOnUse" x="78" y="71" width="9" height="7">
<path fill-rule="evenodd" clip-rule="evenodd" d="M78.5097 71.2405C78.3623 71.2405 78.2959 71.2999 78.2959 71.4337V72.3179C78.2959 72.459 78.3623 72.5259 78.5097 72.5259H81.4593V77.3481C81.4593 77.4818 81.5257 77.5413 81.6658 77.5413H82.6907C82.8308 77.5413 82.8972 77.4818 82.8972 77.3481V72.5259H85.8468C85.9869 72.5259 86.0606 72.459 86.0606 72.3179V71.4337C86.0606 71.2999 85.9869 71.2405 85.8468 71.2405H78.5097Z" fill="white"/>
</mask>
<g mask="url(#mask8_325_1246)">
<rect x="78.2886" y="71.233" width="7.77943" height="6.30822" fill="url(#paint8_linear_325_1246)"/>
</g>
<mask id="mask9_325_1246" style="mask-type:luminance" maskUnits="userSpaceOnUse" x="85" y="71" width="10" height="7">
<path fill-rule="evenodd" clip-rule="evenodd" d="M89.5187 72.5779C89.54 72.5408 89.5794 72.5181 89.6219 72.5185H89.6809C89.7217 72.5175 89.7593 72.5408 89.7768 72.5779L91.2516 75.2231H88.0144L89.5187 72.5779ZM89.3122 71.2405C89.1267 71.2372 88.9435 71.2833 88.7813 71.3742C88.5886 71.5192 88.4321 71.7075 88.3241 71.9241L85.2345 77.3332C85.2148 77.3808 85.2148 77.4343 85.2345 77.4818C85.2345 77.5264 85.3008 77.5413 85.382 77.5413H86.606C86.6922 77.5463 86.7742 77.5036 86.8199 77.4298L87.4688 76.2633H91.8931L92.5567 77.4298C92.601 77.5089 92.6886 77.553 92.778 77.5413H93.9725C94.0463 77.5413 94.0905 77.5413 94.1052 77.4818C94.1249 77.4343 94.1249 77.3808 94.1052 77.3332L90.9935 71.9241C90.8817 71.7034 90.7169 71.5144 90.5142 71.3742C90.3268 71.2797 90.119 71.2337 89.9095 71.2405H89.3122Z" fill="white"/>
</mask>
<g mask="url(#mask9_325_1246)">
<rect x="85.1978" y="71.2331" width="8.90028" height="6.30822" fill="url(#paint9_linear_325_1246)"/>
</g>
<mask id="mask10_325_1246" style="mask-type:luminance" maskUnits="userSpaceOnUse" x="93" y="71" width="8" height="7">
<path fill-rule="evenodd" clip-rule="evenodd" d="M93.4492 71.2405C93.3091 71.2405 93.2354 71.2999 93.2354 71.4337V72.3179C93.2354 72.459 93.3091 72.5259 93.4492 72.5259H96.3987V77.3481C96.3987 77.4818 96.4651 77.5413 96.6052 77.5413H97.6302C97.7703 77.5413 97.8367 77.4818 97.8367 77.3481V72.5259H100.786C100.926 72.5259 101 72.459 101 72.3179V71.4337C101 71.2999 100.926 71.2405 100.786 71.2405H93.4492Z" fill="white"/>
</mask>
<g mask="url(#mask10_325_1246)">
<rect x="93.228" y="71.233" width="7.77944" height="6.30822" fill="url(#paint10_linear_325_1246)"/>
</g>
<mask id="mask11_325_1246" style="mask-type:luminance" maskUnits="userSpaceOnUse" x="13" y="12" width="46" height="34">
<path fill-rule="evenodd" clip-rule="evenodd" d="M49.2722 12.8988C41.2937 16.3687 37.474 21.3692 35.7117 24.958C34.579 27.2276 34.0217 29.7446 34.0894 32.2841V35.3974C32.3713 35.8729 30.6679 36.4153 29.0014 37.0246C27.1875 37.7007 25.403 38.4437 23.6554 39.2536C19.9601 41.028 16.4352 43.1421 13.1255 45.5693C16.5709 44.2579 20.0863 43.1416 23.6554 42.2257C25.4177 41.765 27.1948 41.3564 29.0014 40.9923C30.6753 40.6505 32.3787 40.3533 34.0894 40.0932C35.8002 39.8332 37.5551 39.6177 39.3101 39.4394V32.8191C39.2484 31.0911 39.6079 29.3742 40.3572 27.8186C41.6108 25.2032 44.2727 21.5624 49.8843 18.9024C51.9766 19.8791 53.9087 21.1719 55.6138 22.7363C56.159 21.6702 56.8273 20.6726 57.6047 19.7643L58.9394 18.2782C56.4385 16.0323 53.5854 14.2196 50.4963 12.9137L49.8843 12.6536L49.2722 12.8988Z" fill="white"/>
</mask>
<g mask="url(#mask11_325_1246)">
<rect x="13.1255" y="12.6313" width="45.8139" height="32.9528" fill="url(#paint11_linear_325_1246)"/>
</g>
<mask id="mask12_325_1246" style="mask-type:luminance" maskUnits="userSpaceOnUse" x="60" y="28" width="27" height="18">
<path fill-rule="evenodd" clip-rule="evenodd" d="M65.0968 28.2272H65.0452H64.9641C64.7576 28.3065 64.5511 28.3956 64.3447 28.4947L64.2488 28.5393C64.0571 28.621 63.8728 28.7176 63.6737 28.8142L63.5925 28.8513L63.4746 28.9182C63.2976 29.0074 63.1132 29.104 62.9363 29.208L62.7814 29.3863H62.7151L62.1989 29.691C62.165 29.7199 62.1279 29.7449 62.0883 29.7653C61.8449 29.9287 61.6311 30.0699 61.4467 30.2036L61.3214 30.3002L60.7094 30.7535L60.4365 30.9838C60.5107 31.5852 60.5452 32.1908 60.5398 32.7968V39.4171C62.2997 39.5954 64.0399 39.8133 65.7605 40.0709C67.481 40.3285 69.1795 40.6282 70.8558 40.97C72.655 41.334 74.4395 41.713 76.1945 42.2034C79.7646 43.1213 83.2822 44.235 86.7318 45.5395C83.4186 43.1158 79.8914 41.0042 76.1945 39.2313C74.4543 38.3991 72.6698 37.6561 70.8558 37.0022C69.1819 36.393 67.4859 35.8431 65.7605 35.375V32.2841C65.7775 30.9015 65.6289 29.5219 65.318 28.1752L65.1853 28.2272" fill="white"/>
</mask>
<g mask="url(#mask12_325_1246)">
<rect x="60.3481" y="28.1752" width="26.2879" height="17.4089" fill="url(#paint12_linear_325_1246)"/>
</g>
<mask id="mask13_325_1246" style="mask-type:luminance" maskUnits="userSpaceOnUse" x="54" y="11" width="34" height="26">
<path fill-rule="evenodd" clip-rule="evenodd" d="M75.1767 14.4442C75.1767 14.4442 75.1767 14.4442 75.1398 14.4442H75.0513H75.1841M75.3389 11.8808C74.1703 12.0137 73.0477 12.4154 72.0575 13.0548C72.1608 12.6684 72.2788 12.3118 72.3967 11.8883C71.3891 12.2827 70.4043 12.7341 69.4472 13.2406C67.9724 13.9836 66.1437 14.9569 64.6173 15.8634C63.4804 16.4578 62.4308 17.2079 61.4982 18.0925C61.3846 18.1932 61.2763 18.2999 61.1737 18.412C61.0094 18.5901 60.8567 18.7787 60.7165 18.9767C60.5679 19.1771 60.4301 19.3855 60.3036 19.6008C59.8922 20.3041 59.5607 21.0518 59.3155 21.8298L58.8067 20.8713C58.0043 21.8112 57.3275 22.8528 56.7936 23.9697C56.6756 24.2075 56.565 24.4527 56.4618 24.7127C56.3586 24.9728 56.2406 25.2106 56.1447 25.4558C55.4208 27.2505 54.9252 29.1305 54.6699 31.0507C55.3495 29.5068 56.1432 28.0166 57.0443 26.5926L57.472 25.9462C57.6121 25.7307 57.7596 25.5226 57.9071 25.322C58.9938 23.7998 60.2289 22.391 61.594 21.1165L61.8447 20.8936L62.1397 20.6336L62.6927 20.1655L62.8771 20.0169C63.9176 19.178 65.0167 18.4157 66.1658 17.7358C66.9401 17.2751 67.6848 16.8739 68.378 16.5247C68.7983 16.3241 69.1965 16.1458 69.5873 15.9823L69.7716 15.908C70.133 15.7594 70.509 15.6331 70.7966 15.5142L71.0105 15.4473H71.1063C71.3865 15.3507 71.6594 15.2616 71.9174 15.1873H72.0649C72.323 15.113 72.5737 15.0387 72.8023 14.9866H72.9055L73.5544 14.8455H73.7167L74.2107 14.7563H74.3656L74.6753 14.7117L75.0218 14.6672C74.8596 14.734 73.5471 15.2393 71.5856 16.2201C69.9853 17.0252 68.434 17.9259 66.9401 18.9172C65.8709 19.6602 64.7279 20.4032 63.6661 21.3394L63.5407 21.4435L63.054 21.8521L62.9877 21.9116L62.442 22.3945C62.1692 22.6397 61.8963 22.8998 61.6235 23.1375C60.8619 23.8671 60.1383 24.6359 59.4556 25.4409C59.168 25.7901 58.8878 26.1393 58.615 26.5034C58.4527 26.7115 58.2979 26.9195 58.1504 27.1275C57.9956 27.343 57.8481 27.5659 57.7006 27.7888C56.1146 30.1249 55.0089 32.7575 54.4487 35.5311C54.7058 35.7463 54.9519 35.9745 55.1861 36.2146C55.2614 35.9055 55.3525 35.6005 55.459 35.3007C55.4558 35.2711 55.4558 35.2412 55.459 35.2116C55.5622 34.9367 55.6728 34.6617 55.7908 34.3943C55.8111 34.3561 55.8283 34.3163 55.8424 34.2754C55.9751 33.993 56.1226 33.7255 56.2775 33.4581C56.2976 33.4158 56.3224 33.376 56.3512 33.3392C56.4913 33.094 56.6535 32.8488 56.8231 32.5962C56.8749 32.5287 56.8963 32.4425 56.8821 32.3584C57.0591 32.1058 57.2508 31.868 57.4499 31.6154L57.5531 31.4965C57.8885 31.1028 58.2455 30.7282 58.6223 30.3745L58.8214 30.1814L58.9173 30.0922L59.2639 29.8024L59.3892 29.691L59.5957 29.5126L59.8317 29.3863L59.9718 29.2823L60.3478 29L60.4806 28.9034C60.7018 28.7473 60.9304 28.5987 61.159 28.4501L61.2769 28.3832C61.4908 28.2421 61.7046 28.1232 61.9185 27.9969C61.9577 27.968 61.9997 27.9431 62.0438 27.9226C62.2798 27.7888 62.5256 27.6625 62.7812 27.5436C62.8255 27.5436 62.8771 27.4991 62.9287 27.4693L63.5628 27.1647L63.6513 27.1201L64.3224 26.8303L64.4846 26.7709L64.7722 26.6594L65.1335 26.5257L65.5095 26.3697L66.2469 26.0427C67.4796 25.4857 68.6721 24.8427 69.8159 24.1183C70.7289 23.584 71.5671 22.9293 72.3083 22.1716L71.1579 21.8001C72.1752 21.4353 73.1266 20.9057 73.9748 20.2323C75.5454 19.103 77.3151 17.6095 78.8931 16.5173C81.2159 14.578 87.0708 13.7161 87.8155 13.7161H87.8524C84.881 12.4147 81.6829 11.7202 78.4433 11.6728C77.3937 11.6734 76.3458 11.7579 75.3094 11.9254" fill="white"/>
</mask>
<g mask="url(#mask13_325_1246)">
<rect x="54.4268" y="11.6282" width="33.4479" height="24.4378" fill="url(#paint13_linear_325_1246)"/>
</g>
<path d="M8.4652 60.1621L9.63765 61.3435L11.2009 59.7683L9.63765 58.2006L8.4652 59.382L7.29275 58.2006L5.72949 59.7683L7.29275 61.3435L8.4652 60.1621Z" fill="#8F3A38"/>
<path d="M13.4868 60.2884L14.1578 61.2544V66.0468H5.4493C3.67956 66.0468 1.68862 64.7094 1.68862 62.7627C1.70784 62.078 1.91455 61.412 2.2859 60.8383C2.75903 60.0204 3.57062 59.4588 4.49806 59.3076H4.15887C1.86367 59.3117 0.00405871 61.1855 0 63.4983C0.00811088 65.8081 1.86654 67.6774 4.15887 67.6814H16.3921V61.2692L17.1295 60.3033H13.4942L13.4868 60.2884Z" fill="#8F3A38"/>
<path fill-rule="evenodd" clip-rule="evenodd" d="M99.466 57.9479V58.364H99.4808V63.4388V63.6023C99.5673 64.5745 99.4388 65.554 99.1047 66.4703C97.8994 68.9183 95.0195 70.0089 92.5124 68.9669L92.1438 68.8034C94.0616 69.1345 95.9745 68.1916 96.8925 66.4629C97.0277 66.1481 97.1171 65.8152 97.158 65.4747V64.6425C96.5852 65.2566 95.8514 65.6946 95.0417 65.9056C92.4682 66.4034 91.0598 63.4908 92.0921 61.507C92.716 60.3438 93.7796 59.4837 95.0417 59.1219C95.5639 58.9693 96.0861 58.9015 96.6083 58.8336C97.5609 58.7099 98.5134 58.5862 99.466 57.9479ZM96.3395 64.375C96.6713 64.2413 97.1064 64.0184 97.1875 63.632V60.0878C95.9634 60.281 94.3854 60.6451 93.884 61.9528C93.7813 62.2533 93.7436 62.5725 93.7734 62.889C93.8387 63.489 94.2147 64.0093 94.7615 64.2561C95.2528 64.4984 95.8178 64.5409 96.3395 64.375Z" fill="#8F3A38"/>
<rect width="2.21321" height="2.21323" transform="matrix(0.704908 -0.709299 0.703917 0.710282 76.9272 55.9465)" fill="#8F3A38"/>
<path d="M87.0043 56.5733L88.1767 57.7547L89.74 56.1795L88.1767 54.6118L87.0043 55.7932L85.8318 54.6118L84.2686 56.1795L85.8318 57.7547L87.0043 56.5733Z" fill="#8F3A38"/>
<path fill-rule="evenodd" clip-rule="evenodd" d="M82.9488 60.8754C81.9165 62.8592 83.3175 65.7793 85.8984 65.2741C86.7046 65.0638 87.4356 64.6286 88.0073 64.0184V66.2028H81.216V57.2866C80.2671 57.9224 79.3182 58.0477 78.3693 58.1729C77.8434 58.2423 77.3175 58.3117 76.7916 58.468C75.5305 58.8273 74.4668 59.6848 73.8421 60.8457C72.8098 62.8295 74.2182 65.7496 76.7916 65.2443C77.5995 65.0379 78.3315 64.6021 78.9006 63.9886V66.1731H73.1563V66.136H64.8533C63.1278 66.136 61.1664 64.8282 61.1664 62.9261C61.183 62.2548 61.3847 61.6013 61.7489 61.0389C62.2121 60.2427 63.0049 59.6974 63.9095 59.5528H63.5777C61.3337 59.5528 59.5146 61.3858 59.5146 63.6468C59.5187 65.9074 61.3342 67.7401 63.5777 67.7483H90.308V57.3461C89.3591 57.9819 88.4102 58.1071 87.4613 58.2323C86.9354 58.3017 86.4095 58.3711 85.8836 58.5275C84.6225 58.8868 83.5588 59.7442 82.9341 60.9051L82.9488 60.8754ZM78.9301 63.0376C78.849 63.4165 78.4213 63.6394 78.0894 63.7806C77.5674 63.9427 77.0038 63.9003 76.5114 63.6617C75.9647 63.4133 75.587 62.8946 75.516 62.2946C75.4875 61.9751 75.5277 61.6533 75.6339 61.3509C76.128 60.0432 77.706 59.6866 78.9301 59.4934V63.0376ZM87.1667 63.7806C87.4985 63.6394 87.9262 63.4165 88.0073 63.0376V59.4934C86.7832 59.6866 85.2052 60.0432 84.7112 61.3509C84.6049 61.6533 84.5647 61.9751 84.5932 62.2946C84.6643 62.8946 85.042 63.4133 85.5887 63.6617C86.081 63.9003 86.6446 63.9427 87.1667 63.7806Z" fill="#8F3A38"/>
<rect width="2.21322" height="2.21322" transform="matrix(0.704413 -0.70979 0.704413 0.70979 42.1738 58.2146)" fill="#8F3A38"/>
<path fill-rule="evenodd" clip-rule="evenodd" d="M51.303 60.5228C51.8076 60.5888 52.3181 60.6556 52.8337 60.7937H52.7894C54.0527 61.1532 55.1171 62.0139 55.739 63.1787C56.7861 65.1552 55.385 68.0752 52.7894 67.5774C52.0889 67.3986 51.4462 67.0403 50.9238 66.5372L50.6805 66.3143V67.6146H42.1121H41.8908H38.7422L39.4132 66.827V56.4247L38.7422 55.4588H42.4144L41.677 56.4247V66.0839H43.8523V62.9707L43.8892 61.6407C43.9889 60.4856 44.9507 59.6005 46.1013 59.6048C46.3917 59.6053 46.6793 59.6607 46.9493 59.7683C46.4238 60.1705 46.1155 60.7974 46.1161 61.4624V61.6407V66.0988H48.4093V59.6123C49.3469 60.2667 50.3136 60.3932 51.303 60.5228ZM53.0549 65.8759C53.6016 65.6275 53.9793 65.1088 54.0504 64.5088V64.479C54.0789 64.1596 54.0386 63.8377 53.9324 63.5354C53.4383 62.2351 51.8603 61.871 50.6363 61.6779V65.2518C50.7395 65.6604 51.1451 65.8908 51.4769 65.9948C51.999 66.1569 52.5625 66.1145 53.0549 65.8759Z" fill="#8F3A38"/>
<path fill-rule="evenodd" clip-rule="evenodd" d="M34.3107 60.3553C35.949 60.3639 37.3917 61.4444 37.8722 63.0227L37.9091 63.045C37.9833 63.287 38.0327 63.5359 38.0566 63.788V64.1075V67.6666H18.0513L18.7223 66.8716V56.4693L18.0513 55.5034H21.6792L20.9418 56.4693V66.1285H24.8205V56.4693L24.1495 55.5034H27.7774L27.04 56.4693V60.3553H34.3107ZM27.04 66.1137H35.7633L35.7265 63.6989C35.7333 63.5308 35.7134 63.3628 35.6675 63.201C35.5543 62.5401 34.9909 62.0536 34.3254 62.0419H27.04V66.1137Z" fill="#8F3A38"/>
<path d="M70.841 33.8816C72.655 34.5503 74.4395 35.2933 76.1797 36.1106V30.6643C76.2475 27.5988 75.7189 24.5495 74.6238 21.6887C74.4026 21.8447 74.1814 22.0007 73.9602 22.1419L73.8348 22.5729C73.7611 22.8403 73.5989 23.405 71.4973 24.8762C71.1729 25.1065 70.7599 25.374 70.3027 25.6638C70.6865 27.3018 70.8673 28.9815 70.841 30.6643V33.8816Z" fill="#8F3A38"/>
<path d="M29.075 30.6792C28.9571 27.5743 29.6702 24.4946 31.1397 21.763C33.61 17.0894 38.8749 10.6177 49.9579 5.80297C54.981 7.86951 59.568 10.8803 63.4742 14.6746C65.0006 13.7533 66.785 12.7873 68.3409 12.0072C64.6024 7.94286 59.0941 3.72252 50.9828 0.40866L49.98 0L48.9771 0.40866C35.7041 5.82526 29.4069 13.6492 26.4426 19.2441C24.5533 22.7492 23.6076 26.6916 23.6995 30.6792V36.1255C25.4471 35.2933 27.2316 34.5503 29.0455 33.8965L29.075 30.6792Z" fill="#8F3A38"/>
<path d="M79.2839 49.901C72.7983 45.6224 65.4705 42.8088 57.8038 41.6535L57.1991 41.5718L56.5945 41.4975C56.5071 40.5174 56.2129 39.5675 55.7317 38.7112C55.5963 38.4709 55.4486 38.2378 55.2893 38.0128C55.0776 37.7193 54.8486 37.4389 54.6035 37.1732C54.4708 37.032 54.3381 36.8982 54.2054 36.7794C53.9546 36.5416 53.7113 36.3335 53.468 36.1627C53.2312 35.9812 52.985 35.8126 52.7306 35.6574L52.4356 35.4865V33.7256H53.0624C53.1066 33.681 53.1361 33.6364 53.173 33.5918C54.316 32.3361 53.4458 31.6228 53.0771 31.4073L52.9297 31.333H46.92C46.92 31.333 45.1723 32.0761 46.7946 33.7256H47.4214V35.4865C47.4214 35.4865 43.6607 37.4109 43.2846 41.4975L42.68 41.5718L42.0827 41.6535C34.4133 42.8073 27.0828 45.621 20.5952 49.901C39.6389 43.5407 60.2108 43.5407 79.2544 49.901" fill="#8F3A38"/>
<defs>
<linearGradient id="paint0_linear_325_1246" x1="2.25729" y1="85.3477" x2="14.1292" y2="85.3477" gradientUnits="userSpaceOnUse">
<stop stop-color="#00A88E"/>
<stop offset="0.12" stop-color="#00A88E"/>
<stop offset="0.78" stop-color="#00575E"/>
<stop offset="1" stop-color="#00575E"/>
</linearGradient>
<linearGradient id="paint1_linear_325_1246" x1="14.9871" y1="91.7362" x2="23.8727" y2="91.7362" gradientUnits="userSpaceOnUse">
<stop stop-color="#00A88E"/>
<stop offset="0.12" stop-color="#00A88E"/>
<stop offset="0.78" stop-color="#00575E"/>
<stop offset="1" stop-color="#00575E"/>
</linearGradient>
<linearGradient id="paint2_linear_325_1246" x1="18.182" y1="67.9178" x2="26.3596" y2="67.9178" gradientUnits="userSpaceOnUse">
<stop stop-color="#00A88E"/>
<stop offset="0.12" stop-color="#00A88E"/>
<stop offset="0.78" stop-color="#00575E"/>
<stop offset="1" stop-color="#00575E"/>
</linearGradient>
<linearGradient id="paint3_linear_325_1246" x1="30.1068" y1="77.7866" x2="37.0973" y2="77.7866" gradientUnits="userSpaceOnUse">
<stop stop-color="#00A88E"/>
<stop offset="0.12" stop-color="#00A88E"/>
<stop offset="0.78" stop-color="#00575E"/>
<stop offset="1" stop-color="#00575E"/>
</linearGradient>
<linearGradient id="paint4_linear_325_1246" x1="40.9728" y1="76.692" x2="50.9644" y2="76.692" gradientUnits="userSpaceOnUse">
<stop stop-color="#00A88E"/>
<stop offset="0.12" stop-color="#00A88E"/>
<stop offset="0.78" stop-color="#00575E"/>
<stop offset="1" stop-color="#00575E"/>
</linearGradient>
<linearGradient id="paint5_linear_325_1246" x1="55.2265" y1="91.4836" x2="64.112" y2="91.4836" gradientUnits="userSpaceOnUse">
<stop stop-color="#00A88E"/>
<stop offset="0.12" stop-color="#00A88E"/>
<stop offset="0.78" stop-color="#00575E"/>
<stop offset="1" stop-color="#00575E"/>
</linearGradient>
<linearGradient id="paint6_linear_325_1246" x1="63.3209" y1="84.9035" x2="71.2699" y2="84.9035" gradientUnits="userSpaceOnUse">
<stop stop-color="#00A88E"/>
<stop offset="0.12" stop-color="#00A88E"/>
<stop offset="0.78" stop-color="#00575E"/>
<stop offset="1" stop-color="#00575E"/>
</linearGradient>
<linearGradient id="paint7_linear_325_1246" x1="73.5725" y1="91.3573" x2="82.4581" y2="91.3573" gradientUnits="userSpaceOnUse">
<stop stop-color="#00A88E"/>
<stop offset="0.12" stop-color="#00A88E"/>
<stop offset="0.78" stop-color="#00575E"/>
<stop offset="1" stop-color="#00575E"/>
</linearGradient>
<linearGradient id="paint8_linear_325_1246" x1="80.5291" y1="87.1017" x2="88.3086" y2="87.1017" gradientUnits="userSpaceOnUse">
<stop stop-color="#00A88E"/>
<stop offset="0.12" stop-color="#00A88E"/>
<stop offset="0.78" stop-color="#00575E"/>
<stop offset="1" stop-color="#00575E"/>
</linearGradient>
<linearGradient id="paint9_linear_325_1246" x1="88.6889" y1="92.1077" x2="97.5744" y2="92.1077" gradientUnits="userSpaceOnUse">
<stop stop-color="#00A88E"/>
<stop offset="0.12" stop-color="#00A88E"/>
<stop offset="0.78" stop-color="#00575E"/>
<stop offset="1" stop-color="#00575E"/>
</linearGradient>
<linearGradient id="paint10_linear_325_1246" x1="95.4686" y1="87.1017" x2="103.248" y2="87.1017" gradientUnits="userSpaceOnUse">
<stop stop-color="#00A88E"/>
<stop offset="0.12" stop-color="#00A88E"/>
<stop offset="0.78" stop-color="#00575E"/>
<stop offset="1" stop-color="#00575E"/>
</linearGradient>
<linearGradient id="paint11_linear_325_1246" x1="12.5288" y1="43.573" x2="58.3427" y2="43.573" gradientUnits="userSpaceOnUse">
<stop stop-color="#00A88E"/>
<stop offset="0.12" stop-color="#00A88E"/>
<stop offset="0.78" stop-color="#00575E"/>
<stop offset="1" stop-color="#00575E"/>
</linearGradient>
<linearGradient id="paint12_linear_325_1246" x1="62.9861" y1="56.5867" x2="89.274" y2="56.5867" gradientUnits="userSpaceOnUse">
<stop stop-color="#00A88E"/>
<stop offset="0.12" stop-color="#00A88E"/>
<stop offset="0.78" stop-color="#00575E"/>
<stop offset="1" stop-color="#00575E"/>
</linearGradient>
<linearGradient id="paint13_linear_325_1246" x1="51.092" y1="21.61" x2="84.5399" y2="21.61" gradientUnits="userSpaceOnUse">
<stop stop-color="#00A88E"/>
<stop offset="0.12" stop-color="#00A88E"/>
<stop offset="0.78" stop-color="#00575E"/>
<stop offset="1" stop-color="#00575E"/>
</linearGradient>
</defs>
</svg>
