<svg width="43" height="43" viewBox="0 0 43 43" fill="none" xmlns="http://www.w3.org/2000/svg">
<g id="magnifier">
<path id="Shape" fill-rule="evenodd" clip-rule="evenodd" d="M37.8979 5.10221C44.7006 11.9051 44.7008 22.9744 37.8979 29.7774C32.1265 35.5487 23.5429 36.4227 16.8402 32.4019C16.8402 32.4019 16.3558 32.1131 15.9471 32.5219L7.06387 41.405C5.29216 43.1768 2.81455 43.5985 1.24328 42.027L0.97275 41.7567C-0.598513 40.1852 -0.176711 37.7077 1.59513 35.936L10.497 27.0342C10.8871 26.6444 10.5983 26.1599 10.5983 26.1599C6.57738 19.4571 7.45146 10.8736 13.2229 5.10221C20.0257 -1.70074 31.0949 -1.70074 37.8979 5.10221ZM16.4442 8.32381C11.4175 13.3505 11.4174 21.5294 16.4441 26.556C21.4709 31.5824 29.6497 31.5824 34.6764 26.556C39.7031 21.5294 39.7031 13.3503 34.6764 8.32381C29.6499 3.29713 21.4709 3.29727 16.4442 8.32381Z" fill="#00A58C"/>
<path id="Path" d="M17.5578 16.4043C17.3239 16.4043 17.086 16.3583 16.8568 16.2615C15.941 15.8739 15.5126 14.8173 15.9001 13.9014C18.3362 8.14454 25.0015 5.44295 30.7582 7.87899C31.674 8.26658 32.1024 9.32322 31.7149 10.2391C31.3271 11.155 30.2708 11.5832 29.3546 11.1958C25.4269 9.53377 20.8789 11.3771 19.2171 15.3047C18.9263 15.9917 18.2595 16.4043 17.5578 16.4043Z" fill="#00A58C"/>
</g>
</svg>
