<svg width="132" height="141" viewBox="0 0 132 141" fill="none" xmlns="http://www.w3.org/2000/svg">
<g id="management-team">
<path id="Path" fill-rule="evenodd" clip-rule="evenodd" d="M20.3487 10.2615C19.731 8.80207 19.0358 7.32955 18.7633 6.00427C18.4063 4.26515 18.6941 2.73503 20.1744 1.56711C20.9505 0.955533 22.108 0.507244 23.4575 0.258458C25.2658 -0.0752348 27.4347 -0.0740473 29.3181 0.194332C30.6316 0.381367 31.8092 0.701997 32.6563 1.10932C33.4247 1.47923 33.9591 1.95008 34.2435 2.42924C34.6709 3.14888 34.7708 4.20696 34.5816 5.45089C34.3729 6.82307 33.8421 8.49035 33.5353 10.0294C33.4673 10.369 33.261 10.6647 32.966 10.844C32.671 11.0239 32.3146 11.0708 31.9836 10.974C29.0639 10.1202 24.6168 10.1267 21.8355 10.9628C21.2343 11.1433 20.5947 10.8416 20.3487 10.2615Z" fill="#F8908E"/>
<path id="Shape" fill-rule="evenodd" clip-rule="evenodd" d="M97.9898 116.619C91.4021 128.069 84.2848 136.872 77.4695 139.789C73.3446 141.554 66.4253 141.29 58.3686 139.638C40.1083 135.894 15.8368 125.228 5.973 117.622C3.67701 115.852 2.13473 114.2 1.49512 112.839C0.876784 111.524 0.964273 110.379 1.64763 109.442C2.18616 108.704 3.20587 107.678 4.60214 106.405C5.04845 105.997 5.72295 105.975 6.19527 106.351C15.6978 113.928 39.6088 124.705 57.6096 128.569C65.0905 130.175 71.5174 130.631 75.3456 128.993C81.5165 126.351 87.5792 118.493 93.2275 108.328C93.4534 107.921 93.889 107.676 94.3525 107.695C94.8165 107.713 95.2309 107.993 95.423 108.418C96.2163 110.166 97.1515 112.797 98.0909 115.606C98.2032 115.942 98.1665 116.311 97.9898 116.619ZM108.401 73.3014C114.159 56.8928 118.263 41.1481 119.646 32.6377C119.702 32.2904 119.903 31.984 120.198 31.7946C120.493 31.6052 120.855 31.5512 121.192 31.6456C123.73 32.3569 125.61 33.1703 126.642 34.0075C126.89 34.2082 127.137 34.539 127.271 35.0549C127.409 35.5852 127.443 36.4841 127.322 37.7061C126.736 43.5873 122.722 58.3606 116.704 74.9301C116.491 75.5167 115.876 75.8522 115.271 75.712C113.395 75.2774 111.452 75.0286 109.512 74.9485C109.122 74.9319 108.762 74.7312 108.543 74.4058C108.324 74.081 108.271 73.6713 108.401 73.3014Z" fill="#00585E"/>
<path id="Shape_2" opacity="0.308007" fill-rule="evenodd" clip-rule="evenodd" d="M112.122 75.1599C111.255 75.0542 110.383 74.9841 109.511 74.9485C109.121 74.9319 108.762 74.7312 108.542 74.4058C108.324 74.081 108.27 73.6713 108.4 73.3014C114.159 56.8928 118.263 41.1481 119.645 32.6377C119.701 32.2904 119.902 31.984 120.198 31.7946C120.493 31.6052 120.855 31.5512 121.192 31.6456C121.898 31.8433 122.553 32.0493 123.154 32.2613C123.14 32.5101 123.122 32.7737 123.097 33.0516C122.481 39.9778 118.355 56.9724 112.122 75.1599ZM2.1709 108.8C2.74844 108.147 3.57308 107.342 4.60166 106.405C5.04797 105.997 5.72246 105.975 6.19478 106.351C15.6974 113.928 39.6084 124.705 57.6091 128.569C65.09 130.175 71.5169 130.631 75.3451 128.993C81.516 126.351 87.5787 118.493 93.2271 108.328C93.301 108.194 93.3973 108.078 93.5102 107.983C93.794 108.413 94.086 108.821 94.3845 109.204C94.715 109.613 95.0247 110.038 95.3114 110.48C95.3227 110.497 95.3339 110.515 95.3445 110.533C95.5491 110.886 95.769 111.322 95.9977 111.827C96.1603 112.185 96.1437 112.599 95.9528 112.943C89.977 123.699 83.4153 131.884 76.8856 134.678C72.7589 136.445 65.8402 136.141 57.7871 134.423C39.5433 130.532 15.3013 119.602 5.45172 111.867C4.07555 110.787 2.9713 109.752 2.1709 108.8Z" fill="white"/>
<path id="Path_2" fill-rule="evenodd" clip-rule="evenodd" d="M38.0082 52.0046C41.7519 43.0382 44.175 34.0238 46.2599 28.1913C47.214 25.5211 48.1256 23.4869 49.0294 22.3368C49.5455 21.6789 50.603 21.0406 52.1749 20.5579C55.1666 19.6393 60.2694 19.0824 66.4131 18.8675C66.8369 18.8526 67.2389 19.0586 67.4765 19.4113C67.7136 19.7646 67.7532 20.2159 67.5812 20.6054C66.912 22.1207 66.4373 23.6181 66.335 24.8098C66.3031 25.1839 66.3061 25.5199 66.3717 25.8008C66.403 25.9344 66.4166 26.0656 66.5307 26.1066C68.4342 26.7906 82.2255 28.259 91.3633 27.8124C93.6451 27.7008 95.629 27.4734 97.0406 27.0655C97.7192 26.869 98.2471 26.6825 98.5007 26.3666C99.6091 24.9885 100.742 23.1348 101.669 21.2478C101.901 20.7758 102.405 20.5027 102.925 20.5674C108.312 21.2395 113.051 22.0827 116.489 23.0594C118.96 23.7606 120.793 24.561 121.807 25.3834C122.064 25.5912 122.328 25.9504 122.467 26.5234C122.617 27.1391 122.65 28.199 122.522 29.6424C121.88 36.8685 117.415 55.0565 110.724 74.1239C110.544 74.6364 110.052 74.9706 109.511 74.9487C109.046 74.9291 108.581 74.9196 108.117 74.9196C101.662 74.9196 95.4197 76.7573 91.7729 81.1107C89.3853 83.9614 88.1564 87.8909 88.6902 93.0358C89.1276 97.2533 91.2244 102.479 93.8094 105.795C94.1399 106.204 94.4496 106.629 94.7363 107.07C94.7476 107.088 94.7588 107.106 94.7694 107.124C94.974 107.477 95.1939 107.912 95.4226 108.418C95.5852 108.776 95.5687 109.19 95.3777 109.533C89.4019 120.289 82.8402 128.474 76.3105 131.269C72.1838 133.036 65.2651 132.731 57.212 131.013C38.9682 127.122 14.7262 116.192 4.87663 108.458C2.58715 106.66 1.049 104.988 0.411755 103.615C-0.202439 102.292 -0.112585 101.144 0.568407 100.21C3.22144 96.5746 15.9156 86.0936 26.6016 71.7893C26.8014 71.5221 27.1005 71.3475 27.4304 71.3048C27.7608 71.2626 28.0942 71.3564 28.3543 71.5648C30.1727 73.0207 32.2813 74.3407 33.4813 75.0561C34.5743 73.4073 36.8153 69.802 37.9467 66.3742C38.4315 64.9064 38.2867 59.4492 37.9142 52.5503C37.9042 52.3638 37.9361 52.1774 38.0082 52.0046Z" fill="#00A88E"/>
<path id="Path_3" opacity="0.323071" fill-rule="evenodd" clip-rule="evenodd" d="M35.7336 71.3196C36.6055 73.7968 37.0619 76.8719 34.2629 77.4229C31.2415 78.0179 27.2709 76.3221 23.6572 75.5805C24.6492 74.3496 25.6334 73.0855 26.6017 71.7893C26.8015 71.5221 27.1006 71.3476 27.4305 71.3048C27.7609 71.2626 28.0943 71.3565 28.3544 71.5649C30.1728 73.0208 32.2814 74.3407 33.4814 75.0562C34.0353 74.2202 34.8841 72.8824 35.7336 71.3196Z" fill="white"/>
<path id="Path_4" fill-rule="evenodd" clip-rule="evenodd" d="M18.3925 13.7747C19.0044 13.4772 19.7415 13.7343 20.0377 14.3488C20.3333 14.9634 20.0773 15.7038 19.4655 16.0013C18.9748 16.2399 18.4286 16.3925 17.867 16.5766C17.3037 16.7607 16.7066 16.9786 16.2071 17.57C15.6367 18.2451 15.2063 19.337 14.9427 21.1486C14.4857 24.2866 14.5974 29.3353 15.6981 37.6046C15.7886 38.2815 15.3145 38.9044 14.6406 38.9952C13.9673 39.0855 13.3472 38.6093 13.2567 37.933C12.1099 29.3193 12.0295 24.0592 12.5054 20.7905C12.8636 18.3306 13.5541 16.8866 14.3296 15.9692C15.0485 15.1183 15.8601 14.6772 16.6759 14.3732C17.2741 14.1499 17.8729 14.027 18.3925 13.7747Z" fill="#8F3A38"/>
<path id="Path_5" fill-rule="evenodd" clip-rule="evenodd" d="M67.5788 26.3618C68.219 26.5916 94.6554 28.7737 94.8936 28.1318C95.1313 27.4923 95.8406 27.1664 96.4779 27.4051C97.1145 27.6432 97.4391 28.3563 97.2014 28.9957C96.4796 30.9415 95.9234 32.8938 93.8497 35.0723C93.6327 35.3009 93.3017 35.5247 92.8418 35.6951C92.1939 35.9356 91.1753 36.1031 89.8961 36.182C83.3942 36.584 69.4131 34.9518 67.2543 34.6656C66.4976 34.5646 65.9627 34.2636 65.5784 33.8664C65.0417 33.3118 64.7821 32.5179 64.7975 31.5899C64.8229 30.0497 65.6742 28.0344 66.004 27.1094C66.2334 26.4663 66.9392 26.1314 67.5788 26.3618Z" fill="#ECEDED"/>
<g id="Group">
<path id="Path_6" fill-rule="evenodd" clip-rule="evenodd" d="M55.1504 47.4221C54.622 47.8508 53.8458 47.7683 53.419 47.2369C52.9916 46.7061 53.0744 45.9265 53.6028 45.4972C54.5753 44.7087 56.2972 44.4456 58.3585 44.6814C62.308 45.1326 67.6826 47.2054 69.7469 47.8716C71.4221 48.4119 76.2311 49.0544 80.7681 49.0419C83.6901 49.0336 86.5021 48.7753 88.2182 47.9613C88.833 47.6697 89.5678 47.9346 89.858 48.5521C90.1477 49.1696 89.8846 49.9076 89.2698 50.1986C87.3102 51.1278 84.1115 51.5066 80.7746 51.5155C75.9231 51.5292 70.7849 50.8048 68.9937 50.2271C67.2848 49.6755 63.2325 48.1109 59.7069 47.402C58.6127 47.1823 57.5735 47.0439 56.6874 47.0641C56.0448 47.079 55.498 47.1401 55.1504 47.4221Z" fill="white"/>
<path id="Path_7" fill-rule="evenodd" clip-rule="evenodd" d="M47.3429 65.1832C46.7423 65.5021 45.9963 65.2711 45.6788 64.6672C45.3614 64.064 45.5913 63.3146 46.1925 62.9958C47.4972 62.3035 49.8121 62.1402 52.552 62.3943C58.3038 62.9287 66.1051 65.1054 69.1045 65.8102C73.2525 66.7852 90.3636 68.3254 97.0163 66.2965C97.6666 66.0982 98.3553 66.4675 98.5527 67.1206C98.7501 67.7744 98.3825 68.4655 97.7322 68.6638C90.7757 70.7853 72.8813 69.2386 68.5435 68.2197C65.6038 67.5286 57.9615 65.3815 52.325 64.8578C50.1833 64.6589 48.3626 64.6417 47.3429 65.1832Z" fill="white"/>
<path id="Path_8" fill-rule="evenodd" clip-rule="evenodd" d="M38.7126 80.3324C38.1114 80.6518 37.366 80.4203 37.048 79.817C36.7305 79.2132 36.9605 78.4644 37.5617 78.1456C38.8663 77.4527 41.1812 77.2894 43.9211 77.5441C49.6729 78.0785 57.4742 80.2552 60.4736 80.96C62.4475 81.4237 67.3439 82.0009 72.6612 82.2704C73.3398 82.3055 73.8629 82.8868 73.8287 83.5684C73.7944 84.2506 73.2151 84.7761 72.5364 84.7417C67.0282 84.462 61.9574 83.8492 59.9126 83.3689C56.9729 82.6783 49.3313 80.5313 43.6941 80.0076C41.5524 79.8087 39.7323 79.7915 38.7126 80.3324Z" fill="white"/>
<path id="Path_9" fill-rule="evenodd" clip-rule="evenodd" d="M29.8211 94.6822C29.1685 94.8722 28.4845 94.494 28.296 93.8379C28.1068 93.1824 28.4833 92.496 29.1366 92.306C30.8183 91.8167 33.7078 91.9901 37.0832 92.5922C44.4512 93.9068 54.3043 97.1321 58.1065 98.2406C60.6366 98.9775 66.9671 100.235 73.8769 101.24C74.5497 101.337 75.0167 101.965 74.9197 102.641C74.8222 103.317 74.1968 103.786 73.524 103.688C66.467 102.662 60.0035 101.369 57.4202 100.616C53.6641 99.5214 43.9316 96.3269 36.6523 95.0278C33.7492 94.51 31.2682 94.2619 29.8211 94.6822Z" fill="white"/>
</g>
<path id="Path_10" fill-rule="evenodd" clip-rule="evenodd" d="M92.6563 108.396L92.6474 108.383C92.4122 108.024 92.1586 107.677 91.889 107.344C91.8843 107.338 91.8795 107.332 91.8754 107.326C89.0302 103.681 86.7213 97.9324 86.2401 93.2921C85.6229 87.3397 87.1256 82.8158 89.888 79.5175C93.9674 74.6475 100.895 72.4458 108.117 72.4458C120.199 72.4458 132.905 78.4737 131.949 93.244C131.653 97.8225 129.688 102.067 126.644 105.504C126.641 105.508 126.638 105.511 126.634 105.515C125.755 106.484 125.11 107.643 124.749 108.902C123.627 113.111 123.95 116.72 124.149 119.592C124.301 121.781 124.354 123.595 123.875 124.994C123.657 125.627 123.123 126.279 122.258 126.853C120.801 127.817 118.254 128.679 115.407 129.336C110.685 130.425 105.135 130.987 102.706 130.802C101.711 130.726 101.074 130.434 100.819 130.195C100.644 130.03 100.397 129.691 100.147 129.168C99.7665 128.372 99.2605 126.997 98.6847 125.304C96.8646 119.947 94.2949 111.246 92.6563 108.396Z" fill="#FFD517"/>
<path id="Path_11" fill-rule="evenodd" clip-rule="evenodd" d="M94.7705 113.491C99.9241 109.73 111.465 105.125 118.16 106.648C125.141 108.236 130.877 84.7908 122.426 75.7354C128.376 78.9322 132.509 84.5865 131.949 93.2441C131.653 97.8226 129.688 102.067 126.645 105.504C126.641 105.508 126.638 105.511 126.635 105.515C125.756 106.484 125.11 107.643 124.749 108.902C123.627 113.111 123.95 116.72 124.15 119.592C124.301 121.781 124.355 123.595 123.875 124.994C123.658 125.627 123.123 126.279 122.258 126.853C121.515 127.344 120.49 127.809 119.286 128.234L99.1367 126.605C98.9918 126.198 98.8411 125.763 98.685 125.304C97.5376 121.927 96.0923 117.221 94.7705 113.491Z" fill="#FFAF55"/>
<path id="Path_12" fill-rule="evenodd" clip-rule="evenodd" d="M17.5308 11.9256C17.5704 10.9513 18.1461 10.0582 19.2557 9.38789C20.4049 8.69438 22.2232 8.20927 24.2686 7.9973C27.7061 7.64164 31.782 8.03827 34.1412 9.14326C35.4878 9.77383 36.3302 10.6698 36.5873 11.6667C37.2914 14.404 39.6394 37.9477 40.4291 53.4847C40.7773 60.3301 40.7756 65.6633 40.2843 67.1524C38.6475 72.1109 34.8506 77.4227 34.8506 77.4227C34.4864 77.9315 33.8001 78.0859 33.2545 77.7825C33.2545 77.7825 28.7731 75.2857 25.7967 72.6394C24.336 71.3402 23.2554 69.9603 22.9693 68.8084C22.1553 65.5338 17.4338 14.2775 17.5308 11.9256Z" fill="#8F3A38"/>
<path id="Path_13" fill-rule="evenodd" clip-rule="evenodd" d="M23.5398 65.2195C27.3219 64.2582 33.8676 62.9686 39.4462 63.1075C39.7772 63.1158 40.0911 63.2577 40.3169 63.5012C40.5428 63.7446 40.661 64.0694 40.6456 64.4013C40.5865 65.6904 40.4559 66.6333 40.2844 67.1528C38.6476 72.1113 34.8507 77.4231 34.8507 77.4231C34.4865 77.9319 33.8002 78.0863 33.2546 77.7829C33.2546 77.7829 28.7732 75.2861 25.7968 72.6397C24.3361 71.3406 23.2555 69.9607 22.9694 68.8088C22.8884 68.4828 22.7666 67.7115 22.6206 66.5774C22.5408 65.9564 22.9351 65.3733 23.5398 65.2195Z" fill="#F8908E"/>
<path id="Path_14" fill-rule="evenodd" clip-rule="evenodd" d="M105.725 13.1961C106.18 14.0422 106.237 15.4779 105.823 17.2069C105.032 20.5082 102.674 25.1146 100.417 27.9213C99.9314 28.5252 99.0187 29.0679 97.7212 29.4431C96.1694 29.8914 93.9911 30.161 91.4823 30.2839C81.9933 30.7476 67.6771 29.1468 65.7009 28.4367C64.4164 27.9748 63.7165 26.6239 63.8773 24.6384C64.1362 21.4327 66.6225 16.2611 69.204 13.4306C69.5942 13.0025 70.2208 12.5981 71.0744 12.2698C72.0935 11.8779 73.4862 11.5638 75.1349 11.3299C81.1959 10.4719 90.8988 10.6542 97.5592 11.2289C100.942 11.5205 103.565 11.9331 104.619 12.3369C105.265 12.5839 105.592 12.9467 105.725 13.1961Z" fill="#8F3A38"/>
<path id="Path_15" fill-rule="evenodd" clip-rule="evenodd" d="M76.5592 20.9381C75.8818 20.9903 75.2895 20.4797 75.238 19.7986C75.186 19.1182 75.6944 18.5232 76.3724 18.4716C78.1057 18.3386 82.7461 19.2126 86.9591 19.7731C89.5235 20.1139 91.9141 20.355 93.2335 20.0516C93.8962 19.8996 94.5571 20.3164 94.709 20.982C94.8603 21.647 94.4453 22.3114 93.7827 22.4634C92.2806 22.809 89.5554 22.6137 86.6358 22.2253C82.6237 21.6916 78.2103 20.8116 76.5592 20.9381Z" fill="#ECEDED"/>
<path id="Shape_3" fill-rule="evenodd" clip-rule="evenodd" d="M111.996 89.9555C113.301 90.1051 114.793 90.6366 116.444 91.7469C121.097 94.8754 120.014 99.3245 117.65 103.676C116.436 105.91 114.908 108.105 113.991 109.993C113.524 110.957 113.176 111.795 113.333 112.488C113.483 113.153 113.067 113.816 112.404 113.967C111.741 114.118 111.081 113.7 110.93 113.034C110.676 111.904 111.014 110.482 111.777 108.909C112.708 106.992 114.255 104.759 115.488 102.49C117.203 99.334 118.449 96.0724 115.074 93.8031C113.989 93.0733 113.011 92.653 112.138 92.479C112.089 93.0745 111.983 93.6582 111.825 94.208C111.207 96.3699 109.778 97.8965 108.23 98.0384C107.386 98.1156 106.747 97.8798 106.28 97.4992C105.617 96.9595 105.254 96.0493 105.346 94.9639C105.498 93.1868 106.952 90.8539 109.551 90.1319C109.348 89.3808 108.965 88.7074 108.348 88.2324C107.314 87.4374 105.689 87.302 103.314 88.0858C99.7808 89.2513 99.6975 92.9154 100.598 96.8675C102.141 103.633 106.93 111.383 107.67 112.319C108.092 112.854 108.003 113.633 107.47 114.057C106.938 114.481 106.162 114.391 105.74 113.857C104.953 112.86 99.8393 104.62 98.1977 97.4197C96.9753 92.0586 97.7526 87.3162 102.546 85.7351C105.997 84.5962 108.343 85.1128 109.846 86.2677C111.008 87.1619 111.698 88.5014 111.996 89.9555ZM109.636 92.7337C108.829 93.125 108.269 93.7936 107.987 94.4651C107.868 94.7489 107.798 95.031 107.795 95.2869C107.794 95.3694 107.8 95.4478 107.818 95.519C107.821 95.5333 107.829 95.5535 107.836 95.5689C107.873 95.5731 107.95 95.5796 108.006 95.5749C108.273 95.5505 108.487 95.3504 108.689 95.1058C109.023 94.6997 109.281 94.1439 109.458 93.5252C109.53 93.2711 109.591 93.0057 109.636 92.7337Z" fill="white"/>
<path id="Shape_4" fill-rule="evenodd" clip-rule="evenodd" d="M105.24 108.305C106.394 110.423 107.368 111.937 107.669 112.319C108.092 112.854 108.003 113.633 107.47 114.056C106.937 114.481 106.162 114.391 105.74 113.856C105.399 113.425 104.25 111.64 102.922 109.17C103.681 108.865 104.456 108.575 105.24 108.305ZM116.071 106.371C115.291 107.649 114.534 108.875 113.991 109.993C113.523 110.957 113.176 111.794 113.332 112.487C113.483 113.153 113.066 113.816 112.404 113.967C111.74 114.118 111.081 113.7 110.93 113.034C110.675 111.904 111.013 110.482 111.777 108.909C112.151 108.137 112.625 107.315 113.139 106.461C114.159 106.357 115.144 106.322 116.071 106.371Z" fill="#E4E4E4"/>
<path id="Path_16" d="M104.321 128.358C108.235 128.265 115.484 127.19 119.45 125.531C119.768 125.398 120.126 125.405 120.439 125.55C120.752 125.695 120.99 125.964 121.095 126.294C121.612 127.902 121.877 129.861 121.586 132.218C121.344 134.176 119.69 135.743 117.362 136.709C114.326 137.97 110.195 138.258 107.823 137.671C106.297 137.293 105.242 136.318 104.524 135.056C103.611 133.449 103.284 131.34 103.124 129.717C103.09 129.374 103.2 129.033 103.427 128.776C103.654 128.518 103.978 128.366 104.321 128.358Z" fill="#8F3A38"/>
<path id="Path_17" fill-rule="evenodd" clip-rule="evenodd" d="M103.588 132.586C103.343 131.591 103.209 130.584 103.124 129.717C103.09 129.374 103.2 129.033 103.427 128.776C103.654 128.518 103.978 128.366 104.321 128.358C108.235 128.265 115.484 127.19 119.45 125.531C119.768 125.398 120.126 125.405 120.439 125.55C120.752 125.695 120.99 125.964 121.095 126.294C121.387 127.202 121.599 128.223 121.675 129.364C120.219 130.031 118.281 130.627 116.18 131.112C111.527 132.185 106.07 132.747 103.588 132.586Z" fill="white"/>
<path id="Path_18" d="M123.971 114.222C123.87 116.919 124.164 119.259 124.244 121.191C124.306 122.674 124.235 123.946 123.875 124.994C123.658 125.627 123.123 126.279 122.258 126.853C120.801 127.818 118.254 128.679 115.408 129.336C110.685 130.425 105.135 130.987 102.707 130.802C101.711 130.726 101.074 130.434 100.819 130.195C100.53 129.924 100.025 129.001 99.4956 127.592C98.4924 124.923 97.0565 120.265 95.6479 116.073C95.448 115.478 95.7235 114.827 96.2881 114.559C103.974 110.907 116.886 110.796 123.149 113.009C123.658 113.189 123.991 113.68 123.971 114.222Z" fill="#8F3A38"/>
<path id="Shape_5" fill-rule="evenodd" clip-rule="evenodd" d="M96.9175 119.928C96.7071 119.281 96.4943 118.628 96.2803 117.977C96.288 117.973 96.2962 117.97 96.3045 117.967C96.7881 117.778 97.3496 117.586 97.9964 117.427C98.6324 117.271 99.3424 117.175 100.085 117.068C101.093 116.924 102.169 116.814 103.256 116.721C106.803 116.418 110.435 116.38 112.265 117.026C112.566 117.114 112.74 117.43 112.653 117.732C112.566 118.034 112.251 118.208 111.95 118.121C111.137 117.938 109.984 117.964 108.652 118.08C106.907 118.232 104.888 118.59 102.931 118.961C101.587 119.215 100.285 119.509 99.1189 119.717C98.8352 119.767 98.5597 119.807 98.2931 119.837C97.8385 119.885 97.4212 119.91 97.0352 119.924C96.995 119.926 96.9559 119.927 96.9175 119.928ZM124.248 121.285C124.056 121.372 123.851 121.46 123.627 121.55C123.411 121.636 123.185 121.718 122.942 121.792C122.575 121.904 122.18 121.998 121.77 122.093C121.199 122.225 120.597 122.342 119.98 122.46C116.315 123.162 112.192 123.785 110.666 123.442C110.356 123.393 110.145 123.1 110.195 122.79C110.243 122.479 110.534 122.267 110.843 122.316C112.061 122.428 114.849 121.594 117.694 120.745C118.803 120.414 119.911 120.061 120.948 119.777C121.442 119.642 121.915 119.506 122.369 119.429C122.937 119.332 123.453 119.291 123.916 119.284C123.988 119.284 124.059 119.284 124.126 119.284C124.174 119.958 124.219 120.594 124.244 121.191C124.245 121.222 124.246 121.254 124.248 121.285Z" fill="white"/>
<path id="Path_19" fill-rule="evenodd" clip-rule="evenodd" d="M108.649 79.01C107.466 81.391 94.6778 84.1478 93.5659 88.2163C92.4545 92.2847 89.2393 86.9094 90.3376 83.9507C91.7262 80.21 104.98 72.6705 107.379 75.6488C108.745 77.3433 109.128 78.0481 108.649 79.01Z" fill="#FFEFAE"/>
</g>
</svg>
