<svg width="126" height="126" viewBox="0 0 126 126" fill="none" xmlns="http://www.w3.org/2000/svg">
<path d="M65.8809 72.5117L72.4924 65.9002L87.2118 80.6196L80.6003 87.2311L65.8809 72.5117Z" fill="#D7D7D6"/>
<path d="M51.3352 82.7367C68.6778 82.7367 82.7367 68.6778 82.7367 51.3352C82.7367 33.9926 68.6778 19.9336 51.3352 19.9336C33.9926 19.9336 19.9336 33.9926 19.9336 51.3352C19.9336 68.6778 33.9926 82.7367 51.3352 82.7367Z" fill="#EDECEB"/>
<path d="M51.335 75.207C64.5186 75.207 75.2061 64.5196 75.2061 51.3359C75.2061 38.1523 64.5186 27.4648 51.335 27.4648C38.1513 27.4648 27.4639 38.1523 27.4639 51.3359C27.4639 64.5196 38.1513 75.207 51.335 75.207Z" fill="#CBECE7"/>
<path d="M105.377 97.1822L97.1824 105.377C96.2226 106.337 94.6476 106.312 93.737 105.303L75.0585 85.2466C74.1726 84.3115 74.1972 82.8349 75.1078 81.9244L81.8999 75.1322C82.8105 74.2216 84.287 74.197 85.2222 75.083L105.279 93.7615C106.288 94.6474 106.337 96.2224 105.377 97.1822Z" fill="#00A58C"/>
<path d="M59.1119 38.5389L51.3846 46.2662L43.5342 38.4158C42.4514 37.333 40.6303 37.2346 39.449 38.4158L38.4893 39.3756C37.4065 40.4584 37.308 42.2795 38.4893 43.4608L46.3397 51.3111L38.4647 59.1861C37.3818 60.269 37.2834 62.09 38.4647 63.2713L39.4244 64.2311C40.5072 65.3139 42.3283 65.4123 43.5096 64.2311L51.36 56.3807L59.2104 64.2311C60.2932 65.3139 62.1143 65.4123 63.2955 64.2311L64.2553 63.2713C65.3381 62.1885 65.3381 60.269 64.1322 59.0631L56.4049 51.3358L64.1322 43.6084C65.215 42.5256 65.3135 40.7045 64.1322 39.5233L63.1725 38.5635C62.0404 37.4068 60.2193 37.2838 59.1119 38.5389Z" fill="#F05458"/>
</svg>
