<svg width="128" height="128" viewBox="0 0 128 128" fill="none" xmlns="http://www.w3.org/2000/svg">
<path d="M86.8179 102.504C86.8179 109.743 80.9492 115.612 73.7097 115.612H35.3897L20.926 127.728C20.6088 127.993 20.1257 127.768 20.1257 127.354V116.732C20.1257 116.113 19.6243 115.612 19.0059 115.612H13.1081C5.86869 115.612 0 109.743 0 102.504V59.1413C0 51.9019 5.86869 46.0332 13.1079 46.0332H86.8176V102.504H86.8179Z" fill="#00A58C"/>
<path d="M18.0377 102.504V59.1413C18.0377 51.9019 23.9064 46.0332 31.1455 46.0332H13.1079C5.86869 46.0335 0 51.9022 0 59.1413V102.504C0 109.743 5.86869 115.612 13.1081 115.612H19.0059C19.6246 115.612 20.1257 116.113 20.1257 116.731V127.354C20.1257 127.768 20.6088 127.993 20.926 127.728L35.3897 115.612H31.1455C23.9064 115.612 18.0377 109.743 18.0377 102.504Z" fill="#00A58C"/>
<path d="M86.8183 83.0201V46.0332H45.6367C47.0994 55.0927 51.3719 63.5432 57.8907 70.1029V83.5808C57.8907 87.2439 60.8736 90.2237 64.5401 90.2237C66.1853 90.2237 67.7663 89.611 68.9927 88.4985L76.8629 81.3574C80.0999 82.294 83.4322 82.8462 86.8183 83.0201Z" fill="#00A58C"/>
<path d="M89.0744 0.158222C67.6756 0.179092 50.1862 17.7202 50.2257 39.1191C50.2468 50.5364 55.1892 60.7987 63.0437 67.8996V83.5812C63.0437 84.8713 64.5744 85.5494 65.5298 84.6824L75.6203 75.5268C80.2081 77.2242 85.2031 78.0827 90.4194 77.9114C111.468 77.2206 128.005 60.0976 128 39.0374C127.996 17.5515 110.566 0.137352 89.0744 0.158222Z" fill="#8F3A38"/>
<path d="M63.7236 45.7813C63.6816 23.1203 81.5394 4.39903 103.884 3.06178C99.3192 1.18628 94.3167 0.153325 89.0744 0.15822C67.6756 0.179091 50.1862 17.7202 50.2257 39.1191C50.2468 50.5367 55.1892 60.7987 63.0437 67.8996V83.5812C63.0437 84.8713 64.5744 85.5494 65.5298 84.6824L75.6202 75.5268C75.7457 75.5732 75.8725 75.6164 75.9985 75.6615C68.4267 67.9691 63.7453 57.4231 63.7236 45.7813Z" fill="#8F3A38"/>
<path d="M89.5651 68.6692C86.9903 68.6692 84.8955 66.5744 84.8955 63.9996C84.8955 61.4248 86.9903 59.3301 89.5651 59.3301C92.1398 59.3301 94.2346 61.4248 94.2346 63.9996C94.2346 66.5744 92.1398 68.6692 89.5651 68.6692Z" fill="#F9F7F8"/>
<path d="M89.5648 52.7107C87.4303 52.7107 85.6999 50.9803 85.6999 48.8458V41.0385C85.6999 38.1816 87.8343 35.7725 90.665 35.4342C95.5381 34.8519 99.0595 30.5428 98.6813 25.6243C98.3334 21.0985 94.501 17.406 89.9569 17.2182C85.2232 17.0136 81.1607 20.4 80.5086 25.0745C80.4498 25.4945 80.4202 25.9258 80.4202 26.3548C80.4202 28.4892 78.6898 30.2197 76.5553 30.2197C74.4209 30.2197 72.6904 28.4892 72.6904 26.3548C72.6904 25.5705 72.7451 24.7808 72.8528 24.0075C74.0578 15.3731 81.5469 9.137 90.2759 9.49514C98.8078 9.84788 105.735 16.5272 106.388 25.032C107.037 33.4602 101.455 40.919 93.4296 42.7857V48.8461C93.4296 50.9803 91.6992 52.7107 89.5648 52.7107Z" fill="#F9F7F8"/>
<path d="M51.4035 69.734H23.6434C22.5762 69.734 21.7109 68.8691 21.7109 67.8016C21.7109 66.7341 22.5762 65.8691 23.6434 65.8691H51.4035C52.4708 65.8691 53.336 66.7341 53.336 67.8016C53.336 68.8691 52.4708 69.734 51.4035 69.734Z" fill="#F9F7F8"/>
<path d="M55.277 82.5309H12.1522C11.0849 82.5309 10.2197 81.6659 10.2197 80.5985C10.2197 79.531 11.0849 78.666 12.1522 78.666H55.277C56.3443 78.666 57.2095 79.531 57.2095 80.5985C57.2095 81.6659 56.3443 82.5309 55.277 82.5309Z" fill="#F9F7F8"/>
<path d="M72.6901 95.3278H12.1522C11.0849 95.3278 10.2197 94.4628 10.2197 93.3953C10.2197 92.3279 11.0849 91.4629 12.1522 91.4629H72.6901C73.7576 91.4629 74.6226 92.3279 74.6226 93.3953C74.6226 94.4628 73.7574 95.3278 72.6901 95.3278Z" fill="#F9F7F8"/>
</svg>
