<svg width="110" height="110" viewBox="0 0 110 110" fill="none" xmlns="http://www.w3.org/2000/svg">
<path d="M9.9043 46.1797H100.097V108.468H9.9043V46.1797Z" fill="#FDD559"/>
<path d="M55.0001 90.8269L100.096 46.1801L55.0001 1.53125L9.9043 46.1801L55.0001 90.8269Z" fill="#F0CA54"/>
<path d="M89.2609 17.1094V56.9071L55.0001 90.8261L20.7393 56.9071V17.1094H89.2609Z" fill="#E1EFFF"/>
<path d="M79.7728 28.9878H30.2283C29.5933 28.9878 29.0781 28.4733 29.0781 27.8376C29.0781 27.2027 29.5926 26.6875 30.2283 26.6875H79.7721C80.4071 26.6875 80.9222 27.202 80.9222 27.8376C80.9222 28.4733 80.4077 28.9878 79.7728 28.9878Z" fill="#A2BCCC"/>
<path d="M79.7728 38.894H30.2283C29.5933 38.894 29.0781 38.3795 29.0781 37.7439C29.0781 37.1089 29.5926 36.5938 30.2283 36.5938H79.7721C80.4071 36.5938 80.9222 37.1082 80.9222 37.7439C80.9222 38.3788 80.4077 38.894 79.7728 38.894Z" fill="#A2BCCC"/>
<path d="M79.7728 48.8081H30.2283C29.5933 48.8081 29.0781 48.2936 29.0781 47.6579C29.0781 47.023 29.5926 46.5078 30.2283 46.5078H79.7721C80.4071 46.5078 80.9222 47.0223 80.9222 47.6579C80.9222 48.2929 80.4077 48.8081 79.7728 48.8081Z" fill="#A2BCCC"/>
<path d="M100.096 108.465H9.9043L55.0001 66.3047L100.096 108.465Z" fill="#F0CA54"/>
</svg>
