<svg width="47" height="40" viewBox="0 0 47 40" fill="none" xmlns="http://www.w3.org/2000/svg">
<g id="question">
<path id="Path" d="M19.0396 24.3056V32.6148C19.0396 33.842 20.0353 34.8463 21.2521 34.8463H40.5012L45.0001 38C45.0001 31.3549 45.0001 22.1241 45.0001 15.4789C45.0001 14.2515 44.0045 13.2474 42.7876 13.2474H33.7149" stroke="#00A58C" stroke-width="2.67735" stroke-linecap="round" stroke-linejoin="round"/>
<path id="Path_2" fill-rule="evenodd" clip-rule="evenodd" d="M4.67635 2H30.7261C32.1981 2 33.4025 3.21471 33.4025 4.69937V21.3455C33.4025 22.8301 32.1981 24.0448 30.7261 24.0448H7.44191L2 27.9139C2 19.8758 2 12.7374 2 4.69937C2 3.21471 3.20436 2 4.67635 2Z" stroke="#00A58C" stroke-width="2.67735" stroke-linecap="round" stroke-linejoin="round"/>
<g id="Group">
<path id="Path_3" d="M7.88818 10.0981C7.88818 9.97033 7.89693 9.84463 7.91397 9.72163C8.0981 8.3912 9.24358 7.37138 10.6197 7.39937C12.0117 7.42762 13.165 8.55218 13.2371 9.95459C13.3172 11.5087 12.0898 12.7976 10.5645 12.7976V14.4011" stroke="#00A58C" stroke-width="2.67735" stroke-linecap="round" stroke-linejoin="round"/>
<path id="Path_4" d="M10.57 18.6963V18.6964" stroke="#00A58C" stroke-width="2.67735" stroke-linecap="round" stroke-linejoin="round"/>
</g>
<path id="Path_5" d="M19.1284 7.40418H28.0493" stroke="#00A58C" stroke-width="2.67735" stroke-linecap="round" stroke-linejoin="round"/>
<path id="Path_6" d="M19.1284 12.8029H25.9483" stroke="#00A58C" stroke-width="2.67735" stroke-linecap="round" stroke-linejoin="round"/>
<path id="Path_7" d="M33.4023 18.6515H39.6472" stroke="#00A58C" stroke-width="2.67735" stroke-linecap="round" stroke-linejoin="round"/>
<path id="Path_8" d="M27.7822 24.0502H39.6474" stroke="#00A58C" stroke-width="2.67735" stroke-linecap="round" stroke-linejoin="round"/>
<path id="Path_9" d="M24.3921 29.449H39.6474" stroke="#00A58C" stroke-width="2.67735" stroke-linecap="round" stroke-linejoin="round"/>
<path id="Path_10" d="M19.1284 18.2016H28.0493" stroke="#00A58C" stroke-width="2.67735" stroke-linecap="round" stroke-linejoin="round"/>
</g>
</svg>
