<svg width="40" height="40" viewBox="0 0 40 40" fill="none" xmlns="http://www.w3.org/2000/svg">
<g id="telegram" clip-path="url(#clip0_498_939)">
<g id="Layer 2">
<g id="08.whatsapp">
<path id="Vector" d="M32.8318 0H0V32.8295C-9.55055e-08 34.7309 0.755144 36.5544 2.09937 37.899C3.4436 39.2437 5.26685 39.9994 7.16818 40H40V7.16818C40 5.26706 39.2448 3.44381 37.9005 2.09951C37.2349 1.43388 36.4446 0.90588 35.575 0.545645C34.7053 0.18541 33.7732 0 32.8318 0Z" fill="white"/>
</g>
<path id="Vector_2" d="M15.4174 24.1813L15.0204 29.7653C15.5884 29.7653 15.8344 29.5213 16.1294 29.2283L18.7925 26.6833L24.3106 30.7243C25.3226 31.2883 26.0357 30.9913 26.3087 29.7933L29.9308 12.8214L29.9318 12.8204C30.2528 11.3244 29.3907 10.7394 28.4047 11.1064L7.1142 19.2574C5.66117 19.8214 5.68317 20.6314 6.8672 20.9984L12.3103 22.6913L24.9536 14.7804C25.5486 14.3864 26.0897 14.6044 25.6446 14.9984L15.4174 24.1813Z" fill="black"/>
</g>
</g>
<defs>
<clipPath id="clip0_498_939">
<rect width="40" height="40" fill="white"/>
</clipPath>
</defs>
</svg>
