<svg width="40" height="40" viewBox="0 0 40 40" fill="none" xmlns="http://www.w3.org/2000/svg">
<g id="twitter-2 1" clip-path="url(#clip0_498_930)">
<g id="Layer 2">
<g id="02.twitter">
<path id="Vector" d="M32.8318 0H0V32.8318C0 34.7329 0.755217 36.5562 2.09951 37.9005C3.44381 39.2448 5.26706 40 7.16818 40H40V7.16818C40 5.26706 39.2448 3.44381 37.9005 2.09951C37.2349 1.43388 36.4446 0.90588 35.575 0.545645C34.7053 0.18541 33.7732 0 32.8318 0ZM31.3182 13.1227C30.7803 13.9296 30.1237 14.6506 29.3705 15.2614C29.2737 15.3394 29.1955 15.438 29.1417 15.5501C29.0878 15.6621 29.0596 15.7848 29.0591 15.9091V15.9818C29.0499 17.6031 28.7528 19.2099 28.1818 20.7273C27.5912 22.3181 26.7138 23.7871 25.5932 25.0614C24.0939 26.775 22.1624 28.0551 20 28.7682C18.5761 29.2291 17.0876 29.4592 15.5909 29.45C13.2177 29.4505 10.8866 28.8232 8.83409 27.6318C8.76082 27.5899 8.70307 27.5255 8.66948 27.448C8.63589 27.3706 8.62826 27.2844 8.64773 27.2023C8.66845 27.121 8.71568 27.0489 8.78195 26.9975C8.84821 26.946 8.92974 26.9181 9.01364 26.9182H9.58182C11.3852 26.9227 13.1486 26.3876 14.6455 25.3818C13.7549 25.2352 12.9219 24.8464 12.2376 24.2579C11.5534 23.6694 11.0442 22.904 10.7659 22.0455C10.7525 22.0031 10.7504 21.9579 10.7597 21.9144C10.769 21.871 10.7894 21.8307 10.8189 21.7974C10.8485 21.7642 10.8862 21.7393 10.9282 21.725C10.9703 21.7107 11.0154 21.7076 11.0591 21.7159C11.3311 21.7675 11.6073 21.7934 11.8841 21.7932H11.9886C11.1256 21.3972 10.3959 20.7593 9.88806 19.957C9.38019 19.1546 9.11592 18.2222 9.12727 17.2727C9.12629 17.2278 9.13722 17.1834 9.15895 17.1441C9.18068 17.1047 9.21243 17.0719 9.25099 17.0488C9.28954 17.0257 9.33352 17.0132 9.37846 17.0126C9.42339 17.0121 9.46768 17.0234 9.50682 17.0455C9.85812 17.2397 10.2343 17.385 10.625 17.4773C9.85171 16.713 9.35387 15.7138 9.2095 14.6362C9.06514 13.5586 9.28241 12.4636 9.82727 11.5227C9.84809 11.4869 9.87728 11.4566 9.91233 11.4345C9.94739 11.4124 9.98728 11.3991 10.0286 11.3957C10.0699 11.3924 10.1114 11.3991 10.1496 11.4153C10.1877 11.4314 10.2214 11.4566 10.2477 11.4886C11.3282 12.8268 12.6666 13.9342 14.1834 14.745C15.7001 15.5559 17.3644 16.0538 19.0773 16.2091H19.0909C19.1168 16.2084 19.1423 16.2024 19.1657 16.1915C19.1892 16.1805 19.2101 16.1649 19.2273 16.1455C19.2434 16.1269 19.2556 16.1052 19.263 16.0818C19.2705 16.0583 19.273 16.0336 19.2705 16.0091C19.2052 15.4054 19.2444 14.7949 19.3864 14.2045C19.5093 13.6956 19.7167 13.2108 20 12.7705C20.6016 11.8238 21.5198 11.1214 22.5909 10.7886C23.093 10.6297 23.6165 10.5484 24.1432 10.5477C25.3364 10.5469 26.4888 10.9817 27.3841 11.7705C27.4997 11.8741 27.6493 11.9315 27.8045 11.9318C27.8552 11.9317 27.9057 11.9248 27.9545 11.9114C28.7961 11.6979 29.6028 11.365 30.35 10.9227C30.3947 10.8966 30.4462 10.8845 30.4979 10.8882C30.5495 10.8919 30.5988 10.9111 30.6394 10.9432C30.6799 10.9754 30.7098 11.0191 30.7251 11.0686C30.7404 11.1181 30.7403 11.171 30.725 11.2205C30.4734 11.9994 30.0303 12.7027 29.4364 13.2659C29.9737 13.1385 30.4979 12.9612 31.0023 12.7364C31.0542 12.7115 31.1129 12.7048 31.1691 12.7173C31.2253 12.7298 31.2756 12.7609 31.312 12.8054C31.3485 12.85 31.3689 12.9055 31.37 12.963C31.3711 13.0206 31.3529 13.0768 31.3182 13.1227Z" fill="white"/>
</g>
</g>
</g>
<defs>
<clipPath id="clip0_498_930">
<rect width="40" height="40" fill="white"/>
</clipPath>
</defs>
</svg>
