<svg width="20" height="20" viewBox="0 0 20 20" fill="none" xmlns="http://www.w3.org/2000/svg">
<g clip-path="url(#clip0_139_5522)">
<path d="M9.85724 9.63406C11.1808 9.63406 12.3269 9.15936 13.2633 8.22278C14.1997 7.28635 14.6744 6.14057 14.6744 4.81688C14.6744 3.49364 14.1997 2.34771 13.2632 1.41097C12.3266 0.474699 11.1806 0 9.85724 0C8.53354 0 7.38776 0.474699 6.45132 1.41113C5.51489 2.34756 5.04004 3.49349 5.04004 4.81688C5.04004 6.14057 5.51489 7.2865 6.45148 8.22293C7.38806 9.1592 8.534 9.63406 9.85724 9.63406Z" fill="#00A58C"/>
<path d="M18.2863 15.3823C18.2593 14.9926 18.2047 14.5675 18.1242 14.1185C18.0431 13.6663 17.9385 13.2387 17.8134 12.8479C17.6842 12.4441 17.5084 12.0452 17.2911 11.663C17.0656 11.2662 16.8007 10.9208 16.5034 10.6365C16.1926 10.3391 15.8121 10.1 15.372 9.9256C14.9335 9.75211 14.4475 9.66422 13.9276 9.66422C13.7234 9.66422 13.526 9.74799 13.1447 9.99625C12.91 10.1493 12.6355 10.3263 12.3291 10.5221C12.0671 10.689 11.7122 10.8454 11.2738 10.987C10.8461 11.1254 10.4118 11.1956 9.98322 11.1956C9.5546 11.1956 9.12048 11.1254 8.69232 10.987C8.25439 10.8455 7.89948 10.6891 7.63779 10.5222C7.33429 10.3283 7.05963 10.1513 6.82144 9.99609C6.44058 9.74783 6.24298 9.66406 6.03882 9.66406C5.5188 9.66406 5.03296 9.75211 4.59457 9.92575C4.15482 10.0999 3.77411 10.339 3.46298 10.6367C3.16589 10.9211 2.90085 11.2664 2.67563 11.663C2.4585 12.0452 2.28271 12.4439 2.15332 12.8481C2.02835 13.2389 1.92383 13.6663 1.84265 14.1185C1.76224 14.5668 1.70761 14.9921 1.6806 15.3827C1.65405 15.7654 1.64062 16.1626 1.64062 16.5638C1.64062 17.6078 1.9725 18.4529 2.62695 19.0763C3.27332 19.6913 4.12857 20.0034 5.16861 20.0034H14.7987C15.8388 20.0034 16.6937 19.6915 17.3402 19.0763C17.9948 18.4534 18.3267 17.6081 18.3267 16.5636C18.3266 16.1606 18.313 15.7631 18.2863 15.3823Z" fill="#00A58C"/>
</g>
<defs>
<clipPath id="clip0_139_5522">
<rect width="20" height="20" fill="white"/>
</clipPath>
</defs>
</svg>
