<svg width="20" height="20" viewBox="0 0 20 20" fill="none" xmlns="http://www.w3.org/2000/svg">
<g id="website">
<path id="Shape" fill-rule="evenodd" clip-rule="evenodd" d="M5.72432 20H3.24864C1.42977 20 0 18.488 0 16.6293V3.385C0 1.51841 1.42977 0 3.24864 0H16.4605C18.2757 0 20 1.55023 20 3.385V9.155C20 9.54409 19.5934 9.85932 19.2045 9.85932C18.8157 9.85932 18.4091 9.54386 18.4091 9.155V6.59091H1.36364V16.6293C1.36364 17.7114 2.20636 18.6364 3.24864 18.6364H5.72432C6.11341 18.6364 6.42864 18.9293 6.42864 19.3182C6.42864 19.707 6.11318 20 5.72432 20ZM3.24864 1.36364C2.22409 1.36364 1.36364 2.31364 1.36364 3.385V5.22727H18.4091V3.385C18.4091 2.31364 17.512 1.36364 16.4605 1.36364H3.24864Z" fill="#CDCDCD"/>
<path id="Path" d="M16.0064 2.72729H15.7248C15.336 2.72729 15.0205 3.13389 15.0205 3.52275C15.0205 3.91161 15.3357 4.3182 15.7248 4.3182H16.0064C16.3953 4.3182 16.7107 3.91161 16.7107 3.52275C16.7107 3.13389 16.3953 2.72729 16.0064 2.72729Z" fill="#CDCDCD"/>
<path id="Path_2" d="M13.6119 2.72729H13.3303C12.9414 2.72729 12.626 3.13389 12.626 3.52275C12.626 3.91161 12.9412 4.3182 13.3303 4.3182H13.6119C14.0007 4.3182 14.3162 3.91161 14.3162 3.52275C14.3162 3.13389 14.0007 2.72729 13.6119 2.72729Z" fill="#CDCDCD"/>
<path id="Path_3" d="M11.0767 2.72729H10.7951C10.4063 2.72729 10.0908 3.13389 10.0908 3.52275C10.0908 3.91161 10.406 4.3182 10.7951 4.3182H11.0767C11.4656 4.3182 11.781 3.91161 11.781 3.52275C11.781 3.13389 11.4656 2.72729 11.0767 2.72729Z" fill="#CDCDCD"/>
<path id="Shape_2" fill-rule="evenodd" clip-rule="evenodd" d="M5.90918 14.6294C7.04554 11.7428 9.86577 9.80347 12.954 9.80347C16.043 9.80347 18.8637 11.7428 20.0001 14.6294C20.0001 14.6294 18.8353 19.8296 12.954 19.9548C7.38759 20.0735 5.90918 14.6294 5.90918 14.6294ZM7.42782 14.8791C8.38009 17.0835 10.5874 18.5464 13.0042 18.5464C15.4217 18.5464 17.6296 17.0835 18.5817 14.8791C17.6294 12.6748 15.4217 11.2119 13.0042 11.2119C10.5874 11.2119 8.37986 12.6748 7.42782 14.8791Z" fill="#CDCDCD"/>
<path id="Shape_3" fill-rule="evenodd" clip-rule="evenodd" d="M10.2725 14.879C10.2725 13.3722 11.4984 12.1465 13.0052 12.1465C14.512 12.1465 15.7377 13.3722 15.7377 14.879C15.7377 16.3858 14.512 17.6115 13.0052 17.6115C11.4984 17.6115 10.2725 16.3858 10.2725 14.879ZM11.6809 14.879C11.6809 15.609 12.275 16.2031 13.0052 16.2031C13.7354 16.2031 14.3293 15.609 14.3293 14.879C14.3293 14.149 13.7354 13.5549 13.0052 13.5549C12.275 13.5549 11.6809 14.149 11.6809 14.879Z" fill="#CDCDCD"/>
</g>
</svg>
