<svg width="60" height="60" viewBox="0 0 60 60" fill="none" xmlns="http://www.w3.org/2000/svg">
<path d="M38.2894 21.7069L38.2302 21.6477C36.2681 19.696 33.6752 18.5067 30.916 18.2927C28.1568 18.0787 25.4115 18.8541 23.1719 20.48C20.9324 22.1059 19.3449 24.476 18.6937 27.1658C18.0426 29.8556 18.3704 32.6894 19.6184 35.1595L20.1316 36.17L19.1723 40.82V40.8793L23.7789 39.7858L24.8289 40.3069C27.0143 41.3916 29.4849 41.7633 31.8927 41.3695C34.3004 40.9758 36.524 39.8365 38.25 38.1122C40.417 35.9346 41.6368 32.9897 41.6442 29.9176C41.6516 26.8456 40.446 23.8948 38.2894 21.7069ZM37.8237 34.7332C37.2592 35.6214 36.3631 36.7069 35.246 36.9793C33.2723 37.4569 30.2684 36.9793 26.5066 33.5016L26.4592 33.4582C23.1868 30.4029 22.3184 27.8569 22.5118 25.8398C22.6263 24.6951 23.5816 23.6608 24.3868 22.9819C24.5145 22.8731 24.666 22.7959 24.8291 22.7565C24.9921 22.7171 25.1622 22.7165 25.3255 22.755C25.4888 22.7934 25.6407 22.8697 25.7691 22.9777C25.8975 23.0857 25.9986 23.2223 26.0644 23.3766L27.2763 26.1398C27.3554 26.3161 27.3851 26.5107 27.3621 26.7026C27.3392 26.8945 27.2645 27.0765 27.146 27.2293L26.5302 28.0187C26.4022 28.1826 26.326 28.3809 26.3112 28.5883C26.2965 28.7957 26.3439 29.0029 26.4473 29.1832C27.0326 30.0439 27.7324 30.8208 28.5276 31.4924C29.3813 32.3186 30.3523 33.0142 31.4092 33.5569C31.6017 33.635 31.8131 33.6539 32.0164 33.611C32.2197 33.5681 32.4055 33.4654 32.55 33.3161L33.2565 32.6016C33.3884 32.4505 33.5601 32.3393 33.7519 32.2807C33.9438 32.2221 34.1482 32.2184 34.3421 32.2701L37.2237 33.099C37.3838 33.1459 37.5309 33.2293 37.6534 33.3428C37.7758 33.4562 37.8702 33.5965 37.9292 33.7527C37.9881 33.9088 38.01 34.0766 37.993 34.2426C37.9761 34.4086 37.9208 34.5685 37.8315 34.7095L37.8237 34.7332Z" fill="#00A58C"/>
<path d="M30 0C24.0666 0 18.2664 1.75947 13.3329 5.05591C8.39943 8.35236 4.55426 13.0377 2.28363 18.5195C0.0129985 24.0013 -0.581102 30.0333 0.576455 35.8527C1.73401 41.6721 4.59123 47.0176 8.78681 51.2132C12.9824 55.4088 18.3279 58.266 24.1473 59.4236C29.9667 60.5811 35.9987 59.987 41.4805 57.7164C46.9623 55.4458 51.6477 51.6006 54.9441 46.6671C58.2405 41.7336 60 35.9334 60 30C60 22.0435 56.8393 14.4129 51.2132 8.7868C45.5871 3.16071 37.9565 0 30 0ZM44.8698 30.3513C44.7887 32.8428 44.0833 35.2741 42.8181 37.422C41.553 39.5699 39.7686 41.3657 37.6289 42.6447C35.4891 43.9236 33.0624 44.6446 30.5715 44.7416C28.0806 44.8387 25.6051 44.3086 23.3724 43.2L15.8724 44.9842C15.759 45.0102 15.6404 45.0015 15.532 44.9593C15.4236 44.9171 15.3304 44.8432 15.2645 44.7474C15.2194 44.6833 15.1881 44.6106 15.1725 44.5338C15.1569 44.4571 15.1573 44.3779 15.1737 44.3013L16.7526 36.6355C15.7205 34.6132 15.1649 32.3815 15.1281 30.1114C15.0914 27.8412 15.5746 25.5927 16.5408 23.5381C17.507 21.4835 18.9304 19.6771 20.7023 18.2574C22.4741 16.8377 24.5473 15.8422 26.7631 15.3472C28.9789 14.8521 31.2787 14.8707 33.4862 15.4014C35.6938 15.9321 37.7507 16.9609 39.4994 18.409C41.2481 19.8571 42.6422 21.6862 43.5751 23.7561C44.508 25.8261 44.9549 28.082 44.8816 30.3513H44.8698Z" fill="#00A58C"/>
</svg>
