<svg width="40" height="40" viewBox="0 0 40 40" fill="none" xmlns="http://www.w3.org/2000/svg">
<g id="whatsapp-5 1" clip-path="url(#clip0_498_934)">
<g id="Layer 2">
<g id="08.whatsapp">
<path id="Vector" d="M26.2864 13.7114L26.2409 13.666C24.7547 12.1807 22.7873 11.2743 20.6926 11.1097C18.5978 10.9451 16.5131 11.5331 14.8131 12.768C13.1131 14.003 11.9093 15.8038 11.4183 17.8469C10.9272 19.8899 11.1811 22.0411 12.1341 23.9137L12.5228 24.6774L11.7978 28.2001V28.2433L15.2887 27.4183L16.0819 27.8114C17.7376 28.6331 19.6095 28.9145 21.4337 28.616C23.2579 28.3176 24.9424 27.4543 26.25 26.1478C27.8966 24.5001 28.8252 22.2684 28.8338 19.939C28.8423 17.6096 27.9299 15.3712 26.2955 13.7114H26.2864ZM25.9319 23.5728C25.5046 24.2546 24.8273 25.0683 23.9796 25.2728C22.4909 25.6342 20.2091 25.2864 17.3591 22.6387L17.325 22.6069C14.8432 20.291 14.1864 18.3637 14.3432 16.8342C14.4296 15.966 15.1523 15.1819 15.7614 14.6683C15.8577 14.5859 15.9719 14.5273 16.0949 14.497C16.218 14.4668 16.3463 14.4657 16.4698 14.494C16.5933 14.5223 16.7085 14.5791 16.8061 14.6599C16.9037 14.7406 16.981 14.8431 17.0319 14.9592L17.9546 17.0455C18.0136 17.1793 18.0355 17.3266 18.0179 17.4718C18.0003 17.617 17.9439 17.7547 17.8546 17.8705L17.4 18.4751C17.3034 18.5993 17.2458 18.7494 17.2344 18.9063C17.2231 19.0633 17.2586 19.2201 17.3364 19.3569C17.7805 20.009 18.3111 20.5977 18.9137 21.1069C19.6887 21.8092 20.5523 22.4524 21.0955 22.6728C21.2418 22.7317 21.4023 22.7456 21.5565 22.7128C21.7108 22.68 21.8517 22.602 21.9614 22.4887L22.4955 21.9455C22.5982 21.8412 22.7271 21.7663 22.8686 21.7288C23.0101 21.6912 23.1591 21.6923 23.3 21.7319L25.4841 22.3592C25.6032 22.3968 25.7121 22.4611 25.8025 22.5472C25.8928 22.6334 25.9623 22.7391 26.0055 22.8562C26.0487 22.9734 26.0645 23.0989 26.0518 23.2231C26.039 23.3473 25.998 23.4669 25.9319 23.5728Z" fill="white"/>
<path id="Vector_2" d="M32.8318 0H0V32.8295C-9.55055e-08 34.7309 0.755144 36.5544 2.09937 37.899C3.4436 39.2437 5.26685 39.9994 7.16818 40H40V7.16818C40 5.26706 39.2448 3.44381 37.9005 2.09951C37.2349 1.43388 36.4446 0.90588 35.575 0.545645C34.7053 0.18541 33.7732 0 32.8318 0ZM31.2659 20.2682C31.2041 22.1555 30.6694 23.9972 29.7108 25.6241C28.7521 27.2511 27.4003 28.6113 25.7793 29.5799C24.1583 30.5485 22.32 31.0946 20.433 31.168C18.5461 31.2414 16.6709 30.8398 14.9795 30L9.29773 31.3477C9.2127 31.3666 9.12397 31.3596 9.04296 31.3276C8.96196 31.2956 8.89238 31.2401 8.84318 31.1682C8.8088 31.1201 8.78496 31.0652 8.77321 31.0073C8.76146 30.9493 8.76207 30.8895 8.775 30.8318L9.97045 25.025C9.18999 23.4931 8.77028 21.8029 8.74343 20.0839C8.71658 18.3648 9.08329 16.6624 9.81552 15.1068C10.5478 13.5512 11.6261 12.1838 12.968 11.109C14.31 10.0343 15.88 9.28075 17.558 8.90604C19.2359 8.53133 20.9773 8.5454 22.649 8.94716C24.3207 9.34893 25.8783 10.1277 27.2027 11.224C28.5271 12.3203 29.5833 13.705 30.2903 15.2722C30.9973 16.8394 31.3364 18.5475 31.2818 20.2659L31.2659 20.2682Z" fill="white"/>
</g>
</g>
</g>
<defs>
<clipPath id="clip0_498_934">
<rect width="40" height="40" fill="white"/>
</clipPath>
</defs>
</svg>
