<svg width="40" height="40" viewBox="0 0 40 40" fill="none" xmlns="http://www.w3.org/2000/svg">
<g id="youtube">
<path id="Path" d="M17.2725 15.6455L24.3725 20.0001C21.9816 21.4682 19.6611 22.8978 17.2725 24.3546V15.6455Z" fill="white"/>
<path id="Shape" fill-rule="evenodd" clip-rule="evenodd" d="M0 0H32.8318C34.7333 0 36.5569 0.755529 37.9013 2.10032C39.2457 3.4451 40.0006 5.26894 40 7.17045V40H7.16818C3.2093 40 0 36.7907 0 32.8318V0ZM27.4886 27.9091C28.8727 27.7136 30.3773 26.8659 30.8318 25.4682C31.5409 21.858 31.5409 18.1443 30.8318 14.5341C30.3773 13.1341 28.8727 12.2886 27.4886 12.0932C22.5103 11.5636 17.4897 11.5636 12.5114 12.0932C11.1273 12.2886 9.62273 13.1341 9.16818 14.5341C8.45908 18.1443 8.45908 21.858 9.16818 25.4682C9.62273 26.8659 11.1273 27.7136 12.5114 27.9091C17.4897 28.4386 22.5103 28.4386 27.4886 27.9091Z" fill="white"/>
</g>
</svg>
